<svg xmlns="http://www.w3.org/2000/svg" xmlns:xlink="http://www.w3.org/1999/xlink" width="1200" zoomAndPan="magnify" viewBox="0 0 900 472.499986" height="630" preserveAspectRatio="xMidYMid meet" version="1.0"><defs><g/><clipPath id="526e108ca1"><path d="M 120 18.378906 L 155.335938 18.378906 L 155.335938 21 L 120 21 Z M 120 18.378906 " clip-rule="nonzero"/></clipPath><clipPath id="68c1a48859"><path d="M 64 190 L 78 190 L 78 220.988281 L 64 220.988281 Z M 64 190 " clip-rule="nonzero"/></clipPath><clipPath id="32c9107595"><path d="M 137 153 L 155.335938 153 L 155.335938 158 L 137 158 Z M 137 153 " clip-rule="nonzero"/></clipPath><clipPath id="6d1067746c"><path d="M 139 80 L 155.335938 80 L 155.335938 85 L 139 85 Z M 139 80 " clip-rule="nonzero"/></clipPath><clipPath id="a7fffe4913"><path d="M 37.882812 80 L 55 80 L 55 85 L 37.882812 85 Z M 37.882812 80 " clip-rule="nonzero"/></clipPath><clipPath id="e141c5d7d5"><path d="M 37.882812 155 L 56 155 L 56 159 L 37.882812 159 Z M 37.882812 155 " clip-rule="nonzero"/></clipPath><clipPath id="508993f03f"><path d="M 116 18.378906 L 145 18.378906 L 145 47 L 116 47 Z M 116 18.378906 " clip-rule="nonzero"/></clipPath><clipPath id="1790f32a3d"><path d="M 117 1.199219 L 192.640625 1.199219 L 192.640625 247.855469 L 117 247.855469 Z M 117 1.199219 " clip-rule="nonzero"/></clipPath><clipPath id="f9b8ed9274"><path d="M 0.796875 1.199219 L 77 1.199219 L 77 247.855469 L 0.796875 247.855469 Z M 0.796875 1.199219 " clip-rule="nonzero"/></clipPath><clipPath id="287efaa5f4"><rect x="0" width="194" y="0" height="248"/></clipPath><clipPath id="cd8e0fae8a"><path d="M 755 234 L 796 234 L 796 278 L 755 278 Z M 755 234 " clip-rule="nonzero"/></clipPath><clipPath id="fdb1b19938"><path d="M 758.308594 145.574219 L 887.140625 148.449219 L 884.199219 280.277344 L 755.367188 277.402344 Z M 758.308594 145.574219 " clip-rule="nonzero"/></clipPath><clipPath id="c26773ef47"><path d="M 758.308594 145.574219 L 887.140625 148.449219 L 884.199219 280.277344 L 755.367188 277.402344 Z M 758.308594 145.574219 " clip-rule="nonzero"/></clipPath><clipPath id="7416b055de"><path d="M 758.308594 145.574219 L 887.140625 148.449219 L 884.199219 280.277344 L 755.367188 277.402344 Z M 758.308594 145.574219 " clip-rule="nonzero"/></clipPath><clipPath id="9dd977aa58"><path d="M 757 146 L 802 146 L 802 188 L 757 188 Z M 757 146 " clip-rule="nonzero"/></clipPath><clipPath id="8d7e50a084"><path d="M 758.308594 145.574219 L 887.140625 148.449219 L 884.199219 280.277344 L 755.367188 277.402344 Z M 758.308594 145.574219 " clip-rule="nonzero"/></clipPath><clipPath id="86bbba7f33"><path d="M 758.308594 145.574219 L 887.140625 148.449219 L 884.199219 280.277344 L 755.367188 277.402344 Z M 758.308594 145.574219 " clip-rule="nonzero"/></clipPath><clipPath id="a0d81054a0"><path d="M 758.308594 145.574219 L 887.140625 148.449219 L 884.199219 280.277344 L 755.367188 277.402344 Z M 758.308594 145.574219 " clip-rule="nonzero"/></clipPath><clipPath id="13a0787a42"><path d="M 852 148 L 887 148 L 887 189 L 852 189 Z M 852 148 " clip-rule="nonzero"/></clipPath><clipPath id="c2df490261"><path d="M 758.308594 145.574219 L 887.140625 148.449219 L 884.199219 280.277344 L 755.367188 277.402344 Z M 758.308594 145.574219 " clip-rule="nonzero"/></clipPath><clipPath id="e67c7d8c5a"><path d="M 758.308594 145.574219 L 887.140625 148.449219 L 884.199219 280.277344 L 755.367188 277.402344 Z M 758.308594 145.574219 " clip-rule="nonzero"/></clipPath><clipPath id="9288c2c152"><path d="M 758.308594 145.574219 L 887.140625 148.449219 L 884.199219 280.277344 L 755.367188 277.402344 Z M 758.308594 145.574219 " clip-rule="nonzero"/></clipPath><clipPath id="6fcc628033"><path d="M 846 239 L 885 239 L 885 280 L 846 280 Z M 846 239 " clip-rule="nonzero"/></clipPath><clipPath id="b2c93d5175"><path d="M 758.308594 145.574219 L 887.140625 148.449219 L 884.199219 280.277344 L 755.367188 277.402344 Z M 758.308594 145.574219 " clip-rule="nonzero"/></clipPath><clipPath id="dd15f3316b"><path d="M 758.308594 145.574219 L 887.140625 148.449219 L 884.199219 280.277344 L 755.367188 277.402344 Z M 758.308594 145.574219 " clip-rule="nonzero"/></clipPath><clipPath id="0f67eddcf7"><path d="M 758.308594 145.574219 L 887.140625 148.449219 L 884.199219 280.277344 L 755.367188 277.402344 Z M 758.308594 145.574219 " clip-rule="nonzero"/></clipPath><clipPath id="e3c0036dc8"><path d="M 768 238 L 769 238 L 769 240 L 768 240 Z M 768 238 " clip-rule="nonzero"/></clipPath><clipPath id="c83a48d189"><path d="M 758.308594 145.574219 L 887.140625 148.449219 L 884.199219 280.277344 L 755.367188 277.402344 Z M 758.308594 145.574219 " clip-rule="nonzero"/></clipPath><clipPath id="776edae249"><path d="M 758.308594 145.574219 L 887.140625 148.449219 L 884.199219 280.277344 L 755.367188 277.402344 Z M 758.308594 145.574219 " clip-rule="nonzero"/></clipPath><clipPath id="9fb0f478c0"><path d="M 758.308594 145.574219 L 887.140625 148.449219 L 884.199219 280.277344 L 755.367188 277.402344 Z M 758.308594 145.574219 " clip-rule="nonzero"/></clipPath><clipPath id="3839be4957"><path d="M 767 243 L 768 243 L 768 244 L 767 244 Z M 767 243 " clip-rule="nonzero"/></clipPath><clipPath id="b2eaa220e9"><path d="M 758.308594 145.574219 L 887.140625 148.449219 L 884.199219 280.277344 L 755.367188 277.402344 Z M 758.308594 145.574219 " clip-rule="nonzero"/></clipPath><clipPath id="ea535d541b"><path d="M 758.308594 145.574219 L 887.140625 148.449219 L 884.199219 280.277344 L 755.367188 277.402344 Z M 758.308594 145.574219 " clip-rule="nonzero"/></clipPath><clipPath id="7ffd9f0e42"><path d="M 758.308594 145.574219 L 887.140625 148.449219 L 884.199219 280.277344 L 755.367188 277.402344 Z M 758.308594 145.574219 " clip-rule="nonzero"/></clipPath><clipPath id="36dd75f5af"><rect x="0" width="625" y="0" height="233"/></clipPath><clipPath id="251ac80ce9"><rect x="0" width="346" y="0" height="141"/></clipPath></defs><g transform="matrix(1, 0, 0, 1, 11, 128)"><g clip-path="url(#287efaa5f4)"><path fill="#000000" d="M 52.273438 156.328125 L 74.195312 119.144531 C 74.503906 118.617188 75.070312 118.292969 75.683594 118.292969 L 119.527344 118.292969 C 120.140625 118.292969 120.707031 118.617188 121.019531 119.144531 L 142.941406 156.328125 C 143.257812 156.871094 143.257812 157.542969 142.941406 158.085938 L 121.019531 195.273438 C 120.707031 195.800781 120.140625 196.125 119.527344 196.125 L 75.683594 196.125 C 75.070312 196.125 74.503906 195.800781 74.195312 195.273438 L 52.273438 158.085938 C 51.953125 157.542969 51.953125 156.871094 52.273438 156.328125 Z M 55.769531 157.207031 L 76.671875 192.664062 L 118.539062 192.664062 L 139.441406 157.207031 L 118.539062 121.75 L 76.671875 121.75 Z M 55.769531 157.207031 " fill-opacity="1" fill-rule="evenodd"/><path fill="#000000" d="M 51.777344 81.101562 L 73.699219 43.917969 C 74.011719 43.390625 74.578125 43.066406 75.191406 43.066406 L 119.035156 43.066406 C 119.648438 43.066406 120.214844 43.390625 120.523438 43.917969 L 142.445312 81.101562 C 142.765625 81.644531 142.765625 82.316406 142.445312 82.859375 L 120.523438 120.046875 C 120.214844 120.574219 119.648438 120.898438 119.035156 120.898438 L 75.191406 120.898438 C 74.578125 120.898438 74.011719 120.574219 73.699219 120.046875 L 51.777344 82.859375 C 51.457031 82.316406 51.457031 81.644531 51.777344 81.101562 Z M 55.277344 81.980469 L 76.179688 117.4375 L 118.046875 117.4375 L 138.949219 81.980469 L 118.046875 46.523438 L 76.179688 46.523438 Z M 55.277344 81.980469 " fill-opacity="1" fill-rule="evenodd"/><g clip-path="url(#526e108ca1)"><path fill="#000000" d="M 120.296875 -18.996094 L 142.21875 -56.183594 C 142.53125 -56.710938 143.097656 -57.035156 143.710938 -57.035156 L 187.554688 -57.035156 C 188.167969 -57.035156 188.734375 -56.710938 189.042969 -56.183594 L 210.964844 -18.996094 C 211.285156 -18.453125 211.285156 -17.78125 210.964844 -17.242188 L 189.042969 19.945312 C 188.734375 20.472656 188.167969 20.796875 187.554688 20.796875 L 143.710938 20.796875 C 143.097656 20.796875 142.53125 20.472656 142.21875 19.945312 L 120.296875 -17.242188 C 119.980469 -17.78125 119.980469 -18.453125 120.296875 -18.996094 Z M 123.796875 -18.117188 L 144.699219 17.339844 L 186.566406 17.339844 L 207.46875 -18.117188 L 186.566406 -53.578125 L 144.699219 -53.578125 Z M 123.796875 -18.117188 " fill-opacity="1" fill-rule="evenodd"/></g><g clip-path="url(#68c1a48859)"><path fill="#000000" d="M 73.707031 192.042969 C 74.027344 191.144531 75.015625 190.671875 75.914062 190.992188 C 76.816406 191.308594 77.285156 192.296875 76.96875 193.195312 L 67.636719 219.582031 C 67.320312 220.480469 66.332031 220.953125 65.429688 220.636719 C 64.53125 220.316406 64.058594 219.328125 64.375 218.429688 Z M 73.707031 192.042969 " fill-opacity="1" fill-rule="evenodd"/></g><g clip-path="url(#32c9107595)"><path fill="#000000" d="M 139.542969 157.839844 C 138.589844 157.882812 137.78125 157.144531 137.738281 156.191406 C 137.699219 155.238281 138.4375 154.429688 139.390625 154.386719 L 166.628906 153.179688 C 167.582031 153.136719 168.390625 153.875 168.433594 154.828125 C 168.476562 155.78125 167.734375 156.589844 166.78125 156.632812 Z M 139.542969 157.839844 " fill-opacity="1" fill-rule="evenodd"/></g><g clip-path="url(#6d1067746c)"><path fill="#000000" d="M 140.914062 83.710938 C 139.957031 83.683594 139.203125 82.886719 139.230469 81.933594 C 139.257812 80.980469 140.050781 80.226562 141.007812 80.253906 L 160.097656 80.769531 C 161.054688 80.796875 161.808594 81.59375 161.78125 82.546875 C 161.753906 83.5 160.960938 84.253906 160.003906 84.226562 Z M 140.914062 83.710938 " fill-opacity="1" fill-rule="evenodd"/></g><g clip-path="url(#a7fffe4913)"><path fill="#000000" d="M 53.167969 80.253906 C 54.121094 80.222656 54.917969 80.976562 54.949219 81.929688 C 54.976562 82.882812 54.226562 83.679688 53.269531 83.710938 L 35.148438 84.25 C 34.191406 84.277344 33.394531 83.527344 33.367188 82.570312 C 33.339844 81.617188 34.089844 80.820312 35.042969 80.792969 Z M 53.167969 80.253906 " fill-opacity="1" fill-rule="evenodd"/></g><g clip-path="url(#e141c5d7d5)"><path fill="#000000" d="M 53.910156 155.277344 C 54.867188 155.269531 55.648438 156.039062 55.652344 156.996094 C 55.660156 157.949219 54.890625 158.730469 53.9375 158.734375 L 34.890625 158.875 C 33.9375 158.882812 33.15625 158.113281 33.148438 157.160156 C 33.140625 156.203125 33.910156 155.421875 34.867188 155.417969 Z M 53.910156 155.277344 " fill-opacity="1" fill-rule="evenodd"/></g><path fill="#000000" d="M 76.425781 43.671875 C 76.988281 44.445312 76.816406 45.527344 76.042969 46.085938 C 75.269531 46.648438 74.1875 46.472656 73.625 45.703125 L 60.488281 27.59375 C 59.925781 26.820312 60.097656 25.738281 60.871094 25.179688 C 61.644531 24.617188 62.726562 24.792969 63.289062 25.5625 Z M 76.425781 43.671875 " fill-opacity="1" fill-rule="evenodd"/><g clip-path="url(#508993f03f)"><path fill="#000000" d="M 119.796875 45.535156 C 119.128906 46.214844 118.03125 46.222656 117.351562 45.554688 C 116.671875 44.882812 116.664062 43.789062 117.335938 43.109375 L 141.777344 18.320312 C 142.449219 17.640625 143.546875 17.632812 144.226562 18.304688 C 144.90625 18.972656 144.914062 20.070312 144.242188 20.75 Z M 119.796875 45.535156 " fill-opacity="1" fill-rule="evenodd"/></g><g clip-path="url(#1790f32a3d)"><path fill="#000000" d="M 124.113281 28.605469 L 117.265625 28.605469 L 117.265625 1.199219 L 124.113281 1.199219 C 146.804688 1.199219 165.203125 19.605469 165.203125 42.308594 L 165.203125 90.269531 C 165.203125 94.582031 167.230469 98.644531 170.679688 101.230469 L 187.117188 113.566406 C 190.40625 116.03125 192.414062 119.847656 192.582031 123.957031 C 192.753906 128.070312 191.070312 132.039062 187.996094 134.769531 L 169.800781 150.949219 C 166.875 153.550781 165.203125 157.277344 165.203125 161.191406 L 165.203125 206.746094 C 165.203125 229.449219 146.804688 247.855469 124.113281 247.855469 L 117.265625 247.855469 L 117.265625 220.449219 L 124.113281 220.449219 C 131.675781 220.449219 137.808594 214.3125 137.808594 206.746094 L 137.808594 161.191406 C 137.808594 149.449219 142.828125 138.265625 151.605469 130.464844 L 157.269531 125.425781 L 154.246094 123.15625 C 143.898438 115.394531 137.808594 103.210938 137.808594 90.269531 L 137.808594 42.308594 C 137.808594 34.742188 131.675781 28.605469 124.113281 28.605469 Z M 124.113281 28.605469 " fill-opacity="1" fill-rule="evenodd"/></g><g clip-path="url(#f9b8ed9274)"><path fill="#000000" d="M 69.324219 28.605469 L 76.175781 28.605469 L 76.175781 1.199219 L 69.324219 1.199219 C 46.632812 1.199219 28.238281 19.605469 28.238281 42.308594 L 28.238281 90.269531 C 28.238281 94.582031 26.207031 98.644531 22.757812 101.230469 L 6.320312 113.566406 C 3.03125 116.03125 1.027344 119.847656 0.855469 123.957031 C 0.683594 128.070312 2.367188 132.039062 5.441406 134.769531 L 23.636719 150.949219 C 26.5625 153.550781 28.238281 157.277344 28.238281 161.191406 L 28.238281 206.746094 C 28.238281 229.449219 46.632812 247.855469 69.324219 247.855469 L 76.175781 247.855469 L 76.175781 220.449219 L 69.324219 220.449219 C 61.761719 220.449219 55.628906 214.3125 55.628906 206.746094 L 55.628906 161.191406 C 55.628906 149.449219 50.609375 138.265625 41.835938 130.464844 L 36.167969 125.425781 L 39.195312 123.15625 C 49.539062 115.394531 55.628906 103.210938 55.628906 90.269531 L 55.628906 42.308594 C 55.628906 34.742188 61.761719 28.605469 69.324219 28.605469 Z M 69.324219 28.605469 " fill-opacity="1" fill-rule="evenodd"/></g></g></g><g clip-path="url(#cd8e0fae8a)"><g clip-path="url(#fdb1b19938)"><g clip-path="url(#c26773ef47)"><g clip-path="url(#7416b055de)"><path fill="#000000" d="M 760.679688 236.496094 C 761.179688 236.628906 761.628906 236.746094 762.078125 236.863281 C 762.148438 236.808594 762.261719 236.769531 762.289062 236.699219 C 762.449219 236.292969 763.015625 236.574219 763.183594 236.136719 C 763.292969 235.839844 763.511719 235.582031 763.695312 235.3125 C 764.160156 234.621094 764.71875 234.410156 765.5 234.6875 C 765.847656 234.808594 766.167969 235.019531 766.527344 235.207031 C 767.078125 236.625 766.726562 238.0625 766.554688 239.574219 C 767.085938 240.046875 767.203125 240.726562 767.140625 241.4375 C 766.988281 243.207031 766.828125 244.976562 766.640625 246.746094 C 766.554688 247.574219 766.710938 248.421875 766.394531 249.242188 C 766.257812 249.59375 766.757812 249.917969 766.515625 250.382812 C 766.332031 250.734375 766.351562 251.199219 766.292969 251.613281 C 766.230469 252.03125 766.195312 252.449219 766.132812 252.867188 C 766.082031 253.238281 766 253.601562 765.953125 253.96875 C 765.898438 254.390625 765.871094 254.8125 765.839844 255.234375 C 765.804688 255.65625 765.785156 256.082031 765.746094 256.503906 C 765.632812 257.722656 765.515625 258.941406 765.398438 260.160156 C 765.167969 262.507812 765.28125 264.84375 765.6875 267.164062 C 765.71875 267.339844 765.816406 267.507812 765.890625 267.707031 C 767.707031 267.582031 769.484375 267.445312 771.265625 267.34375 C 772.859375 267.253906 774.4375 266.945312 776.050781 267.085938 C 776.792969 267.152344 777.554688 266.992188 778.304688 266.972656 C 779.292969 266.953125 780.28125 267.007812 781.265625 266.964844 C 783.472656 266.867188 785.675781 266.6875 787.882812 266.621094 C 789.722656 266.566406 791.5625 266.609375 793.402344 266.65625 C 793.910156 266.667969 794.425781 266.808594 794.914062 266.964844 C 795.359375 267.105469 795.589844 267.667969 795.269531 267.988281 C 794.769531 268.488281 794.84375 269.183594 794.46875 269.722656 C 794.136719 270.203125 793.78125 270.714844 793.699219 271.351562 C 793.648438 271.757812 793.296875 271.984375 792.898438 272.050781 C 792.339844 272.140625 791.777344 272.195312 791.214844 272.257812 C 790.519531 272.335938 789.738281 273.011719 789.789062 273.730469 C 789.851562 274.691406 789.230469 274.984375 788.5625 275.203125 C 787.757812 275.464844 786.921875 275.675781 786.082031 275.777344 C 783.035156 276.132812 779.984375 276.4375 776.9375 276.753906 C 775.152344 276.9375 773.367188 277.097656 771.585938 277.28125 C 768.941406 277.550781 766.300781 277.433594 763.675781 277.128906 C 762.71875 277.019531 761.773438 276.636719 761.144531 275.761719 C 760.578125 274.960938 759.96875 274.195312 759.367188 273.421875 C 759.300781 273.335938 759.167969 273.285156 759.054688 273.261719 C 758.445312 273.15625 758.238281 272.679688 758.109375 272.183594 C 757.960938 271.589844 757.792969 270.984375 757.792969 270.382812 C 757.792969 269.425781 757.347656 268.703125 756.621094 268.265625 C 755.890625 267.824219 755.699219 267.210938 755.695312 266.503906 C 755.695312 265.234375 755.714844 263.957031 755.855469 262.695312 C 756.152344 260.03125 756.523438 257.371094 756.863281 254.707031 C 757.359375 250.832031 757.855469 246.957031 758.351562 243.082031 C 758.617188 240.980469 758.878906 238.882812 759.160156 236.789062 C 759.210938 236.421875 759.308594 236.042969 759.472656 235.714844 C 759.550781 235.5625 759.859375 235.433594 760.046875 235.453125 C 760.234375 235.476562 760.464844 235.65625 760.566406 235.832031 C 760.667969 236.019531 760.648438 236.28125 760.679688 236.496094 Z M 757.117188 263.613281 C 756.648438 264.492188 756.648438 264.492188 756.738281 265.582031 C 756.863281 264.917969 756.992188 264.265625 757.117188 263.613281 Z M 786.164062 274.472656 C 786.109375 274.367188 786.078125 274.234375 786.03125 274.230469 C 785.871094 274.214844 785.699219 274.230469 785.539062 274.265625 C 785.5 274.277344 785.460938 274.472656 785.476562 274.484375 C 785.582031 274.542969 785.707031 274.609375 785.824219 274.605469 C 785.9375 274.601562 786.050781 274.519531 786.164062 274.472656 Z M 788.632812 273.9375 C 788.40625 273.933594 788.210938 273.914062 788.019531 273.933594 C 787.964844 273.9375 787.878906 274.054688 787.882812 274.113281 C 787.890625 274.179688 787.980469 274.273438 788.046875 274.285156 C 788.277344 274.332031 788.496094 274.296875 788.632812 273.9375 Z M 782.292969 274.707031 C 782.136719 274.589844 782.035156 274.457031 781.933594 274.457031 C 781.835938 274.460938 781.746094 274.601562 781.652344 274.683594 C 781.746094 274.777344 781.832031 274.925781 781.941406 274.949219 C 782.023438 274.964844 782.136719 274.820312 782.292969 274.707031 Z M 779.75 274.714844 C 779.679688 274.683594 779.609375 274.621094 779.558594 274.632812 C 779.507812 274.644531 779.472656 274.730469 779.433594 274.785156 C 779.46875 274.804688 779.511719 274.847656 779.539062 274.835938 C 779.609375 274.808594 779.671875 274.761719 779.75 274.714844 Z M 780.898438 274.828125 C 780.886719 274.792969 780.886719 274.75 780.867188 274.726562 C 780.855469 274.714844 780.804688 274.738281 780.773438 274.742188 C 780.785156 274.78125 780.785156 274.820312 780.804688 274.847656 C 780.816406 274.859375 780.867188 274.835938 780.898438 274.828125 Z M 780.898438 274.828125 " fill-opacity="1" fill-rule="nonzero"/></g></g></g></g><g clip-path="url(#9dd977aa58)"><g clip-path="url(#8d7e50a084)"><g clip-path="url(#86bbba7f33)"><g clip-path="url(#a0d81054a0)"><path fill="#000000" d="M 770.808594 155.3125 C 770.574219 157.410156 770.34375 159.410156 770.144531 161.414062 C 770.117188 161.671875 770.183594 161.976562 770.3125 162.199219 C 770.464844 162.460938 770.367188 162.582031 770.238281 162.800781 C 769.9375 163.335938 769.863281 163.726562 770.125 164.230469 C 770.300781 164.574219 770.277344 164.925781 770.183594 165.15625 C 769.640625 166.445312 769.726562 167.820312 769.625 169.148438 C 769.390625 172.144531 769.351562 175.15625 769.210938 178.160156 C 769.160156 179.242188 769.066406 180.324219 768.941406 181.398438 C 768.742188 183.074219 768.722656 183.074219 767.429688 184.203125 C 767.078125 184.078125 766.730469 183.953125 766.304688 183.804688 C 766.121094 184.175781 765.945312 184.542969 765.75 184.945312 C 765.617188 184.945312 765.464844 184.988281 765.367188 184.9375 C 764.886719 184.675781 764.464844 184.769531 763.996094 185.144531 C 763.929688 185.445312 763.847656 185.808594 763.765625 186.167969 C 763.277344 186.703125 762.710938 187.085938 761.960938 187.152344 C 761.441406 187.199219 761.160156 187.074219 760.980469 186.566406 C 760.84375 186.175781 760.796875 185.753906 760.707031 185.320312 C 760.394531 185.027344 759.988281 184.976562 759.558594 184.914062 C 758.832031 184.808594 758.445312 184.5 758.515625 183.828125 C 758.652344 182.582031 758.25 181.421875 758.148438 180.21875 C 758.027344 178.789062 758.019531 177.347656 757.964844 175.914062 C 757.960938 175.773438 757.953125 175.625 757.992188 175.492188 C 758.289062 174.503906 758.320312 173.460938 758.566406 172.472656 C 758.726562 171.824219 758.824219 171.164062 758.769531 170.550781 C 758.683594 169.496094 758.902344 168.5 759.023438 167.480469 C 759.117188 166.699219 759.164062 165.917969 759.253906 165.136719 C 759.320312 164.535156 759.425781 163.933594 759.5 163.332031 C 759.582031 162.683594 759.59375 162.023438 759.726562 161.386719 C 759.980469 160.195312 760.257812 159.015625 760.320312 157.792969 C 760.347656 157.238281 760.527344 156.691406 760.644531 156.144531 C 760.851562 155.179688 761.050781 154.214844 761.273438 153.253906 C 761.496094 152.285156 761.898438 151.386719 762.464844 150.566406 C 762.421875 149.554688 762.75 148.628906 763.164062 147.734375 C 763.289062 147.460938 763.527344 147.242188 763.726562 146.984375 C 764.476562 147.386719 764.101562 148.191406 764.582031 148.703125 C 764.703125 148.683594 764.96875 148.714844 765.03125 148.617188 C 765.511719 147.859375 766.320312 147.867188 767.035156 147.8125 C 769.808594 147.601562 772.582031 147.417969 775.359375 147.304688 C 777.429688 147.21875 779.507812 147.261719 781.582031 147.242188 C 782.902344 147.230469 784.222656 147.203125 785.542969 147.195312 C 786.4375 147.1875 787.332031 147.203125 788.226562 147.210938 C 791.246094 147.234375 794.261719 147.148438 797.230469 147.921875 C 798.53125 148.257812 799.542969 148.847656 800.285156 149.992188 C 800.792969 150.773438 801.394531 151.492188 801.671875 152.402344 C 801.734375 152.605469 801.710938 152.839844 801.730469 153.097656 C 800.910156 153.359375 800.160156 153.054688 799.425781 153.136719 C 798.722656 153.214844 798.027344 153.335938 797.234375 153.453125 C 797.140625 153.609375 797.046875 153.902344 796.84375 154.058594 C 796.636719 154.222656 796.332031 154.285156 796.058594 154.328125 C 795.550781 154.414062 795.03125 154.523438 794.523438 154.503906 C 792.683594 154.445312 790.859375 154.621094 789.027344 154.742188 C 787.855469 154.816406 786.671875 154.777344 785.492188 154.769531 C 782.617188 154.757812 779.742188 154.539062 776.871094 154.746094 C 774.902344 154.882812 772.9375 155.109375 770.808594 155.3125 Z M 770.808594 155.3125 " fill-opacity="1" fill-rule="nonzero"/></g></g></g></g><g clip-path="url(#13a0787a42)"><g clip-path="url(#c2df490261)"><g clip-path="url(#e67c7d8c5a)"><g clip-path="url(#9288c2c152)"><path fill="#000000" d="M 877.75 156.734375 C 876.710938 156.8125 875.824219 156.878906 874.933594 156.949219 C 873.664062 157.050781 872.398438 157.164062 871.128906 157.257812 C 869.71875 157.363281 868.308594 157.453125 866.894531 157.539062 C 866.566406 157.558594 866.222656 157.597656 865.910156 157.515625 C 864.742188 157.21875 863.582031 157.433594 862.410156 157.453125 C 860.578125 157.484375 858.753906 157.800781 856.910156 157.613281 C 856.265625 157.546875 855.589844 157.679688 854.945312 157.796875 C 854.121094 157.945312 853.59375 157.613281 853.199219 156.933594 C 853.015625 156.621094 852.796875 156.328125 852.574219 156 C 852.730469 155.785156 852.917969 155.570312 853.050781 155.332031 C 853.136719 155.175781 853.234375 154.925781 853.167969 154.816406 C 852.824219 154.25 853.230469 153.71875 853.226562 153.175781 C 853.226562 152.621094 853.53125 152.109375 853.957031 151.695312 C 854.070312 151.582031 854.035156 151.339844 854.109375 151.171875 C 854.40625 150.5 854.847656 149.984375 855.589844 149.761719 C 856.085938 149.609375 856.5625 149.402344 857.042969 149.207031 C 858.601562 148.566406 860.261719 148.484375 861.90625 148.429688 C 864.257812 148.351562 866.613281 148.398438 868.96875 148.378906 C 871.746094 148.359375 874.527344 148.328125 877.308594 148.300781 C 878.011719 148.296875 878.722656 148.304688 879.429688 148.292969 C 879.871094 148.285156 880.117188 148.542969 880.320312 148.929688 C 880.175781 149.269531 880.019531 149.628906 879.8125 150.101562 C 880.476562 150.210938 881.019531 150.300781 881.621094 150.398438 C 881.761719 150.128906 881.867188 149.878906 882.015625 149.65625 C 882.207031 149.371094 882.464844 149.191406 882.824219 149.152344 C 883.375 149.089844 883.921875 149.003906 884.449219 148.929688 C 885.085938 149.644531 885.4375 150.421875 885.433594 151.363281 C 885.433594 151.679688 885.527344 152.027344 885.671875 152.308594 C 886.671875 154.226562 886.789062 154.871094 886.636719 156.847656 C 886.484375 158.8125 886.476562 160.792969 886.253906 162.75 C 886.039062 164.617188 886.214844 166.515625 885.765625 168.359375 C 885.707031 168.585938 885.71875 168.832031 885.734375 169.0625 C 885.835938 170.605469 885.757812 172.140625 885.664062 173.675781 C 885.652344 173.820312 885.628906 173.960938 885.648438 174.101562 C 885.855469 175.566406 885.621094 177.003906 885.390625 178.445312 C 885.347656 178.714844 885.378906 179 885.382812 179.277344 C 885.386719 179.511719 885.5 179.804688 885.398438 179.96875 C 884.855469 180.84375 885.054688 181.898438 884.660156 182.800781 C 884.3125 183.597656 884.257812 184.429688 884.230469 185.285156 C 884.203125 186.078125 884.042969 186.867188 883.964844 187.660156 C 883.925781 188.019531 883.726562 188.265625 883.488281 188.496094 C 883.027344 188.945312 882.613281 189.011719 882.148438 188.53125 C 881.804688 188.171875 881.457031 188.109375 881.019531 188.125 C 880.84375 188.132812 880.558594 188.101562 880.507812 187.996094 C 880.125 187.210938 879.316406 187.253906 878.679688 187.144531 C 878.019531 187.035156 877.550781 186.78125 877.121094 186.316406 C 876.675781 185.832031 876.480469 185.292969 876.53125 184.640625 C 876.632812 183.28125 876.707031 181.917969 876.804688 180.558594 C 876.875 179.574219 876.964844 178.589844 877.039062 177.605469 C 877.179688 175.820312 877.371094 174.042969 877.4375 172.257812 C 877.539062 169.433594 877.546875 166.609375 877.609375 163.785156 C 877.65625 161.71875 877.726562 159.648438 877.785156 157.582031 C 877.792969 157.351562 877.769531 157.121094 877.75 156.734375 Z M 877.75 156.734375 " fill-opacity="1" fill-rule="nonzero"/></g></g></g></g><g clip-path="url(#6fcc628033)"><g clip-path="url(#b2c93d5175)"><g clip-path="url(#dd15f3316b)"><g clip-path="url(#0f67eddcf7)"><path fill="#000000" d="M 847.800781 276.210938 C 847.527344 275.980469 847.28125 275.769531 847.003906 275.535156 C 847.125 275.289062 847.222656 275.082031 847.320312 274.878906 C 847.296875 274.789062 847.300781 274.679688 847.25 274.621094 C 846.871094 274.199219 846.421875 273.808594 846.628906 273.152344 C 846.882812 272.363281 847.28125 271.640625 848.105469 271.367188 C 849.261719 270.984375 850.40625 270.539062 851.652344 270.449219 C 852.730469 270.375 853.808594 270.25 854.875 270.0625 C 858.464844 269.445312 862.078125 269.273438 865.714844 269.292969 C 868.589844 269.3125 871.464844 269.191406 874.339844 269.257812 C 875.324219 269.28125 876.308594 269.1875 877.402344 269.144531 C 877.457031 268.933594 877.582031 268.675781 877.582031 268.421875 C 877.570312 267.34375 877.523438 266.265625 877.488281 265.191406 C 877.476562 264.820312 877.375 264.425781 877.464844 264.082031 C 877.6875 263.238281 877.5 262.417969 877.425781 261.59375 C 877.328125 260.511719 877.363281 259.441406 877.4375 258.359375 C 877.519531 257.191406 877.457031 256.011719 877.527344 254.84375 C 877.59375 253.726562 877.386719 252.601562 877.628906 251.488281 C 877.679688 251.265625 877.6875 251.007812 877.621094 250.792969 C 877.332031 249.863281 877.4375 248.9375 877.566406 248 C 877.628906 247.542969 877.574219 247.066406 877.53125 246.605469 C 877.460938 245.808594 877.386719 245.03125 877.546875 244.222656 C 877.679688 243.550781 877.578125 242.832031 877.566406 242.136719 C 877.558594 241.519531 877.609375 240.949219 878.109375 240.472656 C 878.332031 240.261719 878.375 239.875 878.542969 239.59375 C 878.839844 239.09375 879.355469 239.113281 879.644531 239.644531 C 879.777344 239.882812 879.828125 240.164062 879.914062 240.425781 C 880.054688 240.867188 880.097656 241.363281 880.566406 241.621094 C 880.664062 241.632812 880.765625 241.667969 880.847656 241.644531 C 881.207031 241.5625 881.546875 241.304688 881.933594 241.523438 C 882.40625 241.792969 882.722656 242.210938 882.851562 242.726562 C 883.289062 244.40625 883.746094 246.078125 883.808594 247.832031 C 883.847656 248.957031 883.945312 250.074219 883.945312 251.207031 C 883.941406 252.609375 884.117188 254.015625 884.210938 255.417969 C 884.273438 256.402344 884.347656 257.386719 884.367188 258.371094 C 884.40625 260.632812 884.40625 262.890625 884.4375 265.148438 C 884.457031 266.785156 884.425781 268.421875 884.261719 270.054688 C 884.191406 270.753906 884.25 271.464844 884.234375 272.167969 C 884.21875 273.011719 884.234375 273.859375 884.132812 274.691406 C 884.089844 275.023438 883.808594 275.355469 883.570312 275.625 C 883.394531 275.828125 883.109375 275.933594 882.84375 276.101562 C 882.617188 275.890625 882.386719 275.671875 882.191406 275.484375 C 881.71875 275.523438 881.695312 275.941406 881.394531 276.203125 C 881.09375 276.234375 880.726562 276.277344 880.363281 276.316406 C 880.292969 276.386719 880.203125 276.441406 880.175781 276.519531 C 880.097656 276.738281 880.0625 276.976562 879.976562 277.195312 C 879.738281 277.808594 878.910156 278.277344 878.269531 278.125 C 877.9375 278.046875 877.6875 277.824219 877.652344 277.4375 C 877.601562 276.875 877.558594 276.3125 877.476562 275.753906 C 877.460938 275.636719 877.320312 275.460938 877.222656 275.449219 C 877.0625 275.429688 876.855469 275.480469 876.730469 275.578125 C 876.480469 275.785156 876.285156 276.058594 876.042969 276.273438 C 875.355469 276.871094 874.589844 277.234375 873.648438 277.355469 C 872.15625 277.550781 870.679688 277.886719 869.203125 278.1875 C 866.433594 278.75 863.644531 279.082031 860.820312 279.183594 C 858.941406 279.25 857.066406 279.417969 855.1875 279.527344 C 853.867188 279.605469 852.550781 279.554688 851.238281 279.359375 C 850.023438 279.175781 848.804688 279.054688 847.59375 278.867188 C 847.230469 278.808594 846.863281 278.667969 846.546875 278.480469 C 845.96875 278.136719 845.984375 277.402344 846.621094 277.15625 C 847.144531 276.949219 847.480469 276.617188 847.800781 276.210938 Z M 847.800781 276.210938 " fill-opacity="1" fill-rule="nonzero"/></g></g></g></g><g clip-path="url(#e3c0036dc8)"><g clip-path="url(#c83a48d189)"><g clip-path="url(#776edae249)"><g clip-path="url(#9fb0f478c0)"><path fill="#000000" d="M 768.03125 239.097656 L 768.015625 238.964844 L 768.089844 238.988281 Z M 768.03125 239.097656 " fill-opacity="1" fill-rule="nonzero"/></g></g></g></g><g clip-path="url(#3839be4957)"><g clip-path="url(#b2eaa220e9)"><g clip-path="url(#ea535d541b)"><g clip-path="url(#7ffd9f0e42)"><path fill="#000000" d="M 767.398438 243.242188 C 767.410156 243.273438 767.4375 243.3125 767.433594 243.34375 C 767.425781 243.371094 767.386719 243.390625 767.359375 243.414062 C 767.371094 243.355469 767.382812 243.300781 767.398438 243.242188 Z M 767.398438 243.242188 " fill-opacity="1" fill-rule="nonzero"/></g></g></g></g><g transform="matrix(1, 0, 0, 1, 239, 73)"><g clip-path="url(#36dd75f5af)"><g fill="#000000" fill-opacity="1"><g transform="translate(0.272437, 175.836597)"><g><path d="M 90.203125 0 L 70.46875 0 L 70.46875 -54.5 C 70.46875 -56.6875 69.921875 -58.328125 68.828125 -59.421875 C 67.734375 -60.523438 66.296875 -61.078125 64.515625 -61.078125 C 62.429688 -61.078125 60.785156 -60.445312 59.578125 -59.1875 C 58.378906 -57.9375 57.78125 -56.0625 57.78125 -53.5625 L 57.78125 0 L 38.0625 0 L 38.0625 -54.5 C 38.0625 -56.6875 37.457031 -58.328125 36.25 -59.421875 C 35.050781 -60.523438 33.617188 -61.078125 31.953125 -61.078125 C 30.066406 -61.078125 28.5 -60.445312 27.25 -59.1875 C 26 -57.9375 25.375 -56.0625 25.375 -53.5625 L 25.375 0 L 5.640625 0 L 5.640625 -77.671875 L 25.375 -77.671875 L 25.375 -70.15625 L 28.1875 -70.15625 C 28.8125 -72.976562 30.242188 -75.300781 32.484375 -77.125 C 34.734375 -78.957031 37.6875 -79.875 41.34375 -79.875 C 44.789062 -79.875 47.710938 -78.957031 50.109375 -77.125 C 52.515625 -75.300781 54.132812 -72.976562 54.96875 -70.15625 L 57.78125 -70.15625 C 58.625 -72.976562 60.375 -75.300781 63.03125 -77.125 C 65.695312 -78.957031 69.015625 -79.875 72.984375 -79.875 C 78.203125 -79.875 82.375 -78.125 85.5 -74.625 C 88.632812 -71.125 90.203125 -66.296875 90.203125 -60.140625 Z M 90.203125 0 "/></g></g></g><g fill="#000000" fill-opacity="1"><g transform="translate(89.381582, 175.836597)"><g><path d="M 62.484375 -11.28125 C 60.398438 -6.375 57.476562 -2.898438 53.71875 -0.859375 C 49.957031 1.171875 45.570312 2.1875 40.5625 2.1875 C 35.863281 2.1875 31.453125 1.300781 27.328125 -0.46875 C 23.203125 -2.238281 19.570312 -4.847656 16.4375 -8.296875 C 13.3125 -11.742188 10.832031 -15.921875 9 -20.828125 C 7.175781 -25.734375 6.265625 -31.320312 6.265625 -37.59375 L 6.265625 -40.09375 C 6.265625 -46.25 7.148438 -51.78125 8.921875 -56.6875 C 10.703125 -61.59375 13.101562 -65.769531 16.125 -69.21875 C 19.15625 -72.664062 22.679688 -75.300781 26.703125 -77.125 C 30.722656 -78.957031 35.03125 -79.875 39.625 -79.875 C 45.15625 -79.875 49.617188 -78.929688 53.015625 -77.046875 C 56.410156 -75.171875 59.097656 -72.25 61.078125 -68.28125 L 63.890625 -68.28125 L 63.890625 -77.671875 L 83.625 -77.671875 L 83.625 -23.484375 C 83.625 -20.359375 85.035156 -18.796875 87.859375 -18.796875 L 90.828125 -18.796875 L 90.828125 0 L 77.359375 0 C 73.816406 0 70.921875 -1.039062 68.671875 -3.125 C 66.429688 -5.21875 65.3125 -7.9375 65.3125 -11.28125 Z M 44.953125 -16.59375 C 50.691406 -16.59375 55.28125 -18.5 58.71875 -22.3125 C 62.164062 -26.125 63.890625 -31.320312 63.890625 -37.90625 L 63.890625 -39.78125 C 63.890625 -46.351562 62.164062 -51.546875 58.71875 -55.359375 C 55.28125 -59.171875 50.691406 -61.078125 44.953125 -61.078125 C 39.203125 -61.078125 34.601562 -59.171875 31.15625 -55.359375 C 27.71875 -51.546875 26 -46.351562 26 -39.78125 L 26 -37.90625 C 26 -31.320312 27.71875 -26.125 31.15625 -22.3125 C 34.601562 -18.5 39.203125 -16.59375 44.953125 -16.59375 Z M 44.953125 -16.59375 "/></g></g></g><g fill="#000000" fill-opacity="1"><g transform="translate(178.490726, 175.836597)"><g><path d="M 10.015625 -77.671875 L 33.046875 -77.671875 L 33.046875 -109.625 L 52.78125 -109.625 L 52.78125 -77.671875 L 80.8125 -77.671875 L 80.8125 -58.890625 L 52.78125 -58.890625 L 52.78125 -23.484375 C 52.78125 -20.359375 54.1875 -18.796875 57 -18.796875 L 77.984375 -18.796875 L 77.984375 0 L 45.109375 0 C 41.554688 0 38.65625 -1.144531 36.40625 -3.4375 C 34.164062 -5.738281 33.046875 -8.664062 33.046875 -12.21875 L 33.046875 -58.890625 L 10.015625 -58.890625 Z M 10.015625 -77.671875 "/></g></g></g><g fill="#000000" fill-opacity="1"><g transform="translate(267.599871, 175.836597)"><g><path d="M 11.75 -18.796875 L 39 -18.796875 L 39 -90.828125 L 12.6875 -90.828125 L 12.6875 -109.625 L 58.734375 -109.625 L 58.734375 -18.796875 L 84.09375 -18.796875 L 84.09375 0 L 11.75 0 Z M 11.75 -18.796875 "/></g></g></g><g fill="#000000" fill-opacity="1"><g transform="translate(356.709016, 175.836597)"><g><path d="M 62.484375 -11.28125 C 60.398438 -6.375 57.476562 -2.898438 53.71875 -0.859375 C 49.957031 1.171875 45.570312 2.1875 40.5625 2.1875 C 35.863281 2.1875 31.453125 1.300781 27.328125 -0.46875 C 23.203125 -2.238281 19.570312 -4.847656 16.4375 -8.296875 C 13.3125 -11.742188 10.832031 -15.921875 9 -20.828125 C 7.175781 -25.734375 6.265625 -31.320312 6.265625 -37.59375 L 6.265625 -40.09375 C 6.265625 -46.25 7.148438 -51.78125 8.921875 -56.6875 C 10.703125 -61.59375 13.101562 -65.769531 16.125 -69.21875 C 19.15625 -72.664062 22.679688 -75.300781 26.703125 -77.125 C 30.722656 -78.957031 35.03125 -79.875 39.625 -79.875 C 45.15625 -79.875 49.617188 -78.929688 53.015625 -77.046875 C 56.410156 -75.171875 59.097656 -72.25 61.078125 -68.28125 L 63.890625 -68.28125 L 63.890625 -77.671875 L 83.625 -77.671875 L 83.625 -23.484375 C 83.625 -20.359375 85.035156 -18.796875 87.859375 -18.796875 L 90.828125 -18.796875 L 90.828125 0 L 77.359375 0 C 73.816406 0 70.921875 -1.039062 68.671875 -3.125 C 66.429688 -5.21875 65.3125 -7.9375 65.3125 -11.28125 Z M 44.953125 -16.59375 C 50.691406 -16.59375 55.28125 -18.5 58.71875 -22.3125 C 62.164062 -26.125 63.890625 -31.320312 63.890625 -37.90625 L 63.890625 -39.78125 C 63.890625 -46.351562 62.164062 -51.546875 58.71875 -55.359375 C 55.28125 -59.171875 50.691406 -61.078125 44.953125 -61.078125 C 39.203125 -61.078125 34.601562 -59.171875 31.15625 -55.359375 C 27.71875 -51.546875 26 -46.351562 26 -39.78125 L 26 -37.90625 C 26 -31.320312 27.71875 -26.125 31.15625 -22.3125 C 34.601562 -18.5 39.203125 -16.59375 44.953125 -16.59375 Z M 44.953125 -16.59375 "/></g></g></g><g fill="#000000" fill-opacity="1"><g transform="translate(445.818161, 175.836597)"><g><path d="M 28.65625 0 L 8.921875 0 L 8.921875 -109.625 L 28.65625 -109.625 L 28.65625 -66.40625 L 31.484375 -66.40625 C 33.566406 -70.6875 36.59375 -74 40.5625 -76.34375 C 44.53125 -78.695312 49.59375 -79.875 55.75 -79.875 C 60.34375 -79.875 64.703125 -78.984375 68.828125 -77.203125 C 72.953125 -75.429688 76.550781 -72.847656 79.625 -69.453125 C 82.707031 -66.054688 85.160156 -61.90625 86.984375 -57 C 88.816406 -52.09375 89.734375 -46.507812 89.734375 -40.25 L 89.734375 -37.421875 C 89.734375 -31.054688 88.84375 -25.421875 87.0625 -20.515625 C 85.289062 -15.609375 82.890625 -11.457031 79.859375 -8.0625 C 76.835938 -4.664062 73.265625 -2.109375 69.140625 -0.390625 C 65.015625 1.328125 60.550781 2.1875 55.75 2.1875 C 52.195312 2.1875 49.113281 1.820312 46.5 1.09375 C 43.894531 0.363281 41.625 -0.625 39.6875 -1.875 C 37.757812 -3.132812 36.144531 -4.570312 34.84375 -6.1875 C 33.539062 -7.800781 32.421875 -9.5 31.484375 -11.28125 L 28.65625 -11.28125 Z M 49.328125 -16.59375 C 55.492188 -16.59375 60.476562 -18.5 64.28125 -22.3125 C 68.09375 -26.125 70 -31.320312 70 -37.90625 L 70 -39.78125 C 70 -46.351562 68.09375 -51.546875 64.28125 -55.359375 C 60.476562 -59.171875 55.492188 -61.078125 49.328125 -61.078125 C 43.171875 -61.078125 38.1875 -59.117188 34.375 -55.203125 C 30.5625 -51.285156 28.65625 -46.144531 28.65625 -39.78125 L 28.65625 -37.90625 C 28.65625 -31.53125 30.5625 -26.382812 34.375 -22.46875 C 38.1875 -18.550781 43.171875 -16.59375 49.328125 -16.59375 Z M 49.328125 -16.59375 "/></g></g></g><g fill="#000000" fill-opacity="1"><g transform="translate(534.936682, 175.836597)"><g><path d="M 29.75 -57.625 C 29.75 -53.875 31.34375 -51.003906 34.53125 -49.015625 C 37.71875 -47.035156 43.539062 -45.734375 52 -45.109375 C 61.082031 -44.367188 68 -42.195312 72.75 -38.59375 C 77.5 -35 79.875 -29.753906 79.875 -22.859375 L 79.875 -21.921875 C 79.875 -18.160156 79.113281 -14.789062 77.59375 -11.8125 C 76.082031 -8.84375 73.992188 -6.3125 71.328125 -4.21875 C 68.671875 -2.132812 65.4375 -0.546875 61.625 0.546875 C 57.8125 1.640625 53.660156 2.1875 49.171875 2.1875 C 43.117188 2.1875 37.925781 1.378906 33.59375 -0.234375 C 29.257812 -1.847656 25.65625 -3.988281 22.78125 -6.65625 C 19.914062 -9.320312 17.75 -12.347656 16.28125 -15.734375 C 14.820312 -19.128906 13.988281 -22.550781 13.78125 -26 L 25.375 -28.8125 C 25.894531 -22.863281 28.191406 -18.085938 32.265625 -14.484375 C 36.335938 -10.878906 41.765625 -9.078125 48.546875 -9.078125 C 54.285156 -9.078125 58.90625 -10.195312 62.40625 -12.4375 C 65.90625 -14.6875 67.65625 -17.847656 67.65625 -21.921875 C 67.65625 -26.304688 65.929688 -29.4375 62.484375 -31.3125 C 59.035156 -33.195312 53.453125 -34.398438 45.734375 -34.921875 C 36.753906 -35.546875 29.863281 -37.632812 25.0625 -41.1875 C 20.257812 -44.738281 17.859375 -49.90625 17.859375 -56.6875 L 17.859375 -57.625 C 17.859375 -61.28125 18.640625 -64.488281 20.203125 -67.25 C 21.765625 -70.019531 23.875 -72.34375 26.53125 -74.21875 C 29.195312 -76.101562 32.203125 -77.515625 35.546875 -78.453125 C 38.890625 -79.398438 42.390625 -79.875 46.046875 -79.875 C 51.160156 -79.875 55.648438 -79.164062 59.515625 -77.75 C 63.378906 -76.34375 66.613281 -74.515625 69.21875 -72.265625 C 71.832031 -70.023438 73.84375 -67.441406 75.25 -64.515625 C 76.65625 -61.597656 77.566406 -58.675781 77.984375 -55.75 L 66.40625 -52.9375 C 65.882812 -57.945312 63.875 -61.859375 60.375 -64.671875 C 56.875 -67.492188 52.304688 -68.90625 46.671875 -68.90625 C 44.472656 -68.90625 42.351562 -68.671875 40.3125 -68.203125 C 38.28125 -67.734375 36.484375 -67.023438 34.921875 -66.078125 C 33.359375 -65.140625 32.101562 -63.96875 31.15625 -62.5625 C 30.21875 -61.15625 29.75 -59.507812 29.75 -57.625 Z M 29.75 -57.625 "/></g></g></g></g></g><g transform="matrix(1, 0, 0, 1, 239, 249)"><g clip-path="url(#251ac80ce9)"><g fill="#000000" fill-opacity="1"><g transform="translate(0.272437, 105.909097)"><g><path d="M 15.875 -27.0625 L 15.875 0 L 7.984375 0 L 7.984375 -65.78125 L 31.484375 -65.78125 C 34.859375 -65.78125 37.800781 -65.289062 40.3125 -64.3125 C 42.820312 -63.34375 44.90625 -62.046875 46.5625 -60.421875 C 48.21875 -58.796875 49.46875 -56.898438 50.3125 -54.734375 C 51.164062 -52.578125 51.59375 -50.304688 51.59375 -47.921875 L 51.59375 -45.109375 C 51.59375 -42.722656 51.164062 -40.429688 50.3125 -38.234375 C 49.46875 -36.046875 48.203125 -34.117188 46.515625 -32.453125 C 44.828125 -30.796875 42.726562 -29.484375 40.21875 -28.515625 C 37.707031 -27.546875 34.796875 -27.0625 31.484375 -27.0625 Z M 15.875 -34.390625 L 30.546875 -34.390625 C 39.316406 -34.390625 43.703125 -38.148438 43.703125 -45.671875 L 43.703125 -47.359375 C 43.703125 -50.679688 42.617188 -53.359375 40.453125 -55.390625 C 38.296875 -57.429688 34.992188 -58.453125 30.546875 -58.453125 L 15.875 -58.453125 Z M 15.875 -34.390625 "/></g></g></g><g fill="#000000" fill-opacity="1"><g transform="translate(49.509479, 105.909097)"><g><path d="M 5.546875 -46.609375 L 22.453125 -46.609375 L 22.453125 -40.40625 L 23.59375 -40.40625 C 24.78125 -42.976562 26.46875 -44.875 28.65625 -46.09375 C 30.851562 -47.3125 33.359375 -47.921875 36.171875 -47.921875 C 40.867188 -47.921875 44.660156 -46.382812 47.546875 -43.3125 C 50.429688 -40.25 51.96875 -35.769531 52.15625 -29.875 L 44.453125 -28.75 C 44.453125 -33.070312 43.414062 -36.1875 41.34375 -38.09375 C 39.28125 -40.007812 36.742188 -40.96875 33.734375 -40.96875 C 31.796875 -40.96875 30.117188 -40.59375 28.703125 -39.84375 C 27.296875 -39.09375 26.125 -38.054688 25.1875 -36.734375 C 24.25 -35.421875 23.554688 -33.882812 23.109375 -32.125 C 22.671875 -30.375 22.453125 -28.5 22.453125 -26.5 L 22.453125 -6.765625 L 34.296875 -6.765625 L 34.296875 0 L 4.421875 0 L 4.421875 -6.765625 L 15.125 -6.765625 L 15.125 -39.84375 L 5.546875 -39.84375 Z M 5.546875 -46.609375 "/></g></g></g><g fill="#000000" fill-opacity="1"><g transform="translate(98.746521, 105.909097)"><g><path d="M 52.15625 -22.734375 C 52.15625 -18.859375 51.507812 -15.429688 50.21875 -12.453125 C 48.9375 -9.472656 47.226562 -6.960938 45.09375 -4.921875 C 42.96875 -2.890625 40.476562 -1.34375 37.625 -0.28125 C 34.78125 0.78125 31.820312 1.3125 28.75 1.3125 C 25.625 1.3125 22.648438 0.78125 19.828125 -0.28125 C 17.003906 -1.34375 14.523438 -2.890625 12.390625 -4.921875 C 10.265625 -6.960938 8.5625 -9.472656 7.28125 -12.453125 C 6 -15.429688 5.359375 -18.859375 5.359375 -22.734375 L 5.359375 -23.875 C 5.359375 -27.6875 6 -31.082031 7.28125 -34.0625 C 8.5625 -37.039062 10.28125 -39.5625 12.4375 -41.625 C 14.601562 -43.695312 17.097656 -45.265625 19.921875 -46.328125 C 22.742188 -47.390625 25.6875 -47.921875 28.75 -47.921875 C 31.820312 -47.921875 34.765625 -47.390625 37.578125 -46.328125 C 40.398438 -45.265625 42.890625 -43.695312 45.046875 -41.625 C 47.210938 -39.5625 48.9375 -37.039062 50.21875 -34.0625 C 51.507812 -31.082031 52.15625 -27.6875 52.15625 -23.875 Z M 28.75 -5.640625 C 31.007812 -5.640625 33.09375 -6.03125 35 -6.8125 C 36.914062 -7.59375 38.59375 -8.734375 40.03125 -10.234375 C 41.46875 -11.742188 42.59375 -13.546875 43.40625 -15.640625 C 44.226562 -17.742188 44.640625 -20.109375 44.640625 -22.734375 L 44.640625 -23.875 C 44.640625 -26.375 44.226562 -28.671875 43.40625 -30.765625 C 42.59375 -32.867188 41.46875 -34.671875 40.03125 -36.171875 C 38.59375 -37.679688 36.898438 -38.859375 34.953125 -39.703125 C 33.015625 -40.546875 30.945312 -40.96875 28.75 -40.96875 C 26.5625 -40.96875 24.492188 -40.546875 22.546875 -39.703125 C 20.609375 -38.859375 18.914062 -37.679688 17.46875 -36.171875 C 16.03125 -34.671875 14.90625 -32.867188 14.09375 -30.765625 C 13.28125 -28.671875 12.875 -26.375 12.875 -23.875 L 12.875 -22.734375 C 12.875 -20.109375 13.28125 -17.742188 14.09375 -15.640625 C 14.90625 -13.546875 16.03125 -11.742188 17.46875 -10.234375 C 18.914062 -8.734375 20.59375 -7.59375 22.5 -6.8125 C 24.414062 -6.03125 26.5 -5.640625 28.75 -5.640625 Z M 28.75 -5.640625 "/></g></g></g><g fill="#000000" fill-opacity="1"><g transform="translate(147.983563, 105.909097)"><g><path d="M 28.84375 -60.515625 C 28.84375 -62.328125 29.484375 -63.875 30.765625 -65.15625 C 32.054688 -66.445312 33.609375 -67.09375 35.421875 -67.09375 C 37.242188 -67.09375 38.796875 -66.445312 40.078125 -65.15625 C 41.359375 -63.875 42 -62.328125 42 -60.515625 C 42 -58.703125 41.359375 -57.148438 40.078125 -55.859375 C 38.796875 -54.578125 37.242188 -53.9375 35.421875 -53.9375 C 33.609375 -53.9375 32.054688 -54.578125 30.765625 -55.859375 C 29.484375 -57.148438 28.84375 -58.703125 28.84375 -60.515625 Z M 13.25 -46.609375 L 39.1875 -46.609375 L 39.1875 11.46875 C 39.1875 13.59375 38.507812 15.34375 37.15625 16.71875 C 35.8125 18.101562 34.078125 18.796875 31.953125 18.796875 L 11 18.796875 L 11 12.03125 L 29.3125 12.03125 C 31.007812 12.03125 31.859375 11.085938 31.859375 9.203125 L 31.859375 -39.84375 L 13.25 -39.84375 Z M 13.25 -46.609375 "/></g></g></g><g fill="#000000" fill-opacity="1"><g transform="translate(197.220605, 105.909097)"><g><path d="M 13.53125 -21.046875 C 13.71875 -16.410156 15.15625 -12.679688 17.84375 -9.859375 C 20.539062 -7.046875 24.300781 -5.640625 29.125 -5.640625 C 31.320312 -5.640625 33.234375 -5.890625 34.859375 -6.390625 C 36.492188 -6.890625 37.890625 -7.578125 39.046875 -8.453125 C 40.203125 -9.328125 41.140625 -10.34375 41.859375 -11.5 C 42.578125 -12.664062 43.15625 -13.90625 43.59375 -15.21875 L 50.5625 -13.34375 C 49.238281 -9.019531 46.804688 -5.492188 43.265625 -2.765625 C 39.734375 -0.046875 34.957031 1.3125 28.9375 1.3125 C 25.625 1.3125 22.570312 0.734375 19.78125 -0.421875 C 16.988281 -1.578125 14.585938 -3.21875 12.578125 -5.34375 C 10.578125 -7.476562 9.015625 -10.019531 7.890625 -12.96875 C 6.765625 -15.914062 6.203125 -19.171875 6.203125 -22.734375 L 6.203125 -25 C 6.203125 -28.25 6.78125 -31.285156 7.9375 -34.109375 C 9.09375 -36.929688 10.703125 -39.359375 12.765625 -41.390625 C 14.835938 -43.429688 17.269531 -45.03125 20.0625 -46.1875 C 22.851562 -47.34375 25.875 -47.921875 29.125 -47.921875 C 32.945312 -47.921875 36.25 -47.21875 39.03125 -45.8125 C 41.820312 -44.40625 44.109375 -42.664062 45.890625 -40.59375 C 47.679688 -38.53125 49 -36.273438 49.84375 -33.828125 C 50.695312 -31.378906 51.125 -29.125 51.125 -27.0625 L 51.125 -21.046875 Z M 29.125 -40.96875 C 27.0625 -40.96875 25.132812 -40.640625 23.34375 -39.984375 C 21.5625 -39.328125 19.992188 -38.398438 18.640625 -37.203125 C 17.296875 -36.015625 16.203125 -34.625 15.359375 -33.03125 C 14.515625 -31.4375 13.96875 -29.695312 13.71875 -27.8125 L 43.796875 -27.8125 C 43.660156 -29.820312 43.171875 -31.640625 42.328125 -33.265625 C 41.484375 -34.890625 40.390625 -36.265625 39.046875 -37.390625 C 37.703125 -38.523438 36.164062 -39.40625 34.4375 -40.03125 C 32.71875 -40.65625 30.945312 -40.96875 29.125 -40.96875 Z M 29.125 -40.96875 "/></g></g></g><g fill="#000000" fill-opacity="1"><g transform="translate(246.457646, 105.909097)"><g><path d="M 51.78125 -16.53125 C 51.28125 -13.96875 50.414062 -11.585938 49.1875 -9.390625 C 47.96875 -7.203125 46.414062 -5.304688 44.53125 -3.703125 C 42.65625 -2.109375 40.460938 -0.875 37.953125 0 C 35.453125 0.875 32.664062 1.3125 29.59375 1.3125 C 26.34375 1.3125 23.257812 0.78125 20.34375 -0.28125 C 17.425781 -1.34375 14.867188 -2.890625 12.671875 -4.921875 C 10.484375 -6.960938 8.75 -9.457031 7.46875 -12.40625 C 6.1875 -15.351562 5.546875 -18.734375 5.546875 -22.546875 L 5.546875 -23.6875 C 5.546875 -27.4375 6.1875 -30.816406 7.46875 -33.828125 C 8.75 -36.835938 10.484375 -39.375 12.671875 -41.4375 C 14.867188 -43.507812 17.425781 -45.109375 20.34375 -46.234375 C 23.257812 -47.359375 26.34375 -47.921875 29.59375 -47.921875 C 32.539062 -47.921875 35.265625 -47.484375 37.765625 -46.609375 C 40.273438 -45.734375 42.484375 -44.492188 44.390625 -42.890625 C 46.304688 -41.296875 47.875 -39.398438 49.09375 -37.203125 C 50.320312 -35.015625 51.15625 -32.632812 51.59375 -30.0625 L 44.265625 -28.375 C 44.078125 -30.007812 43.617188 -31.59375 42.890625 -33.125 C 42.171875 -34.65625 41.203125 -36 39.984375 -37.15625 C 38.765625 -38.320312 37.273438 -39.25 35.515625 -39.9375 C 33.765625 -40.625 31.726562 -40.96875 29.40625 -40.96875 C 27.15625 -40.96875 25.039062 -40.546875 23.0625 -39.703125 C 21.09375 -38.859375 19.351562 -37.664062 17.84375 -36.125 C 16.34375 -34.59375 15.171875 -32.757812 14.328125 -30.625 C 13.484375 -28.5 13.0625 -26.1875 13.0625 -23.6875 L 13.0625 -22.546875 C 13.0625 -19.921875 13.484375 -17.554688 14.328125 -15.453125 C 15.171875 -13.359375 16.34375 -11.585938 17.84375 -10.140625 C 19.351562 -8.703125 21.109375 -7.59375 23.109375 -6.8125 C 25.117188 -6.03125 27.28125 -5.640625 29.59375 -5.640625 C 31.914062 -5.640625 33.9375 -6 35.65625 -6.71875 C 37.382812 -7.4375 38.859375 -8.375 40.078125 -9.53125 C 41.296875 -10.695312 42.265625 -12.03125 42.984375 -13.53125 C 43.710938 -15.03125 44.203125 -16.597656 44.453125 -18.234375 Z M 51.78125 -16.53125 "/></g></g></g><g fill="#000000" fill-opacity="1"><g transform="translate(295.694688, 105.909097)"><g><path d="M 6.578125 -46.609375 L 21.234375 -46.609375 L 21.234375 -65.78125 L 28.5625 -65.78125 L 28.5625 -46.609375 L 46.609375 -46.609375 L 46.609375 -39.84375 L 28.5625 -39.84375 L 28.5625 -9.578125 C 28.5625 -7.703125 29.410156 -6.765625 31.109375 -6.765625 L 44.359375 -6.765625 L 44.359375 0 L 28.46875 0 C 26.34375 0 24.601562 -0.6875 23.25 -2.0625 C 21.90625 -3.445312 21.234375 -5.203125 21.234375 -7.328125 L 21.234375 -39.84375 L 6.578125 -39.84375 Z M 6.578125 -46.609375 "/></g></g></g></g></g></svg>