<svg xmlns="http://www.w3.org/2000/svg" xmlns:xlink="http://www.w3.org/1999/xlink" width="1200" zoomAndPan="magnify" viewBox="0 0 900 472.499986" height="630" preserveAspectRatio="xMidYMid meet" version="1.0"><defs><g/><clipPath id="ac8ce2c739"><path d="M 131 146.707031 L 165.761719 146.707031 L 165.761719 149 L 131 149 Z M 131 146.707031 " clip-rule="nonzero"/></clipPath><clipPath id="a6d66dcf04"><path d="M 75 318 L 89 318 L 89 348.996094 L 75 348.996094 Z M 75 318 " clip-rule="nonzero"/></clipPath><clipPath id="d8d67492a7"><path d="M 148 281 L 165.761719 281 L 165.761719 286 L 148 286 Z M 148 281 " clip-rule="nonzero"/></clipPath><clipPath id="ab09a15e74"><path d="M 150 208 L 165.761719 208 L 165.761719 213 L 150 213 Z M 150 208 " clip-rule="nonzero"/></clipPath><clipPath id="1f83ac75d9"><path d="M 48.882812 208 L 66 208 L 66 213 L 48.882812 213 Z M 48.882812 208 " clip-rule="nonzero"/></clipPath><clipPath id="2b5e1ad69e"><path d="M 48.882812 283 L 67 283 L 67 287 L 48.882812 287 Z M 48.882812 283 " clip-rule="nonzero"/></clipPath><clipPath id="6cf5497a60"><path d="M 127 146.707031 L 156 146.707031 L 156 175 L 127 175 Z M 127 146.707031 " clip-rule="nonzero"/></clipPath><clipPath id="df5fbbf43d"><path d="M 128 129.199219 L 203.59375 129.199219 L 203.59375 375.6875 L 128 375.6875 Z M 128 129.199219 " clip-rule="nonzero"/></clipPath><clipPath id="b7df44bec2"><path d="M 11.796875 129.199219 L 88 129.199219 L 88 375.6875 L 11.796875 375.6875 Z M 11.796875 129.199219 " clip-rule="nonzero"/></clipPath><clipPath id="d897d92f06"><path d="M 755 234 L 796 234 L 796 278 L 755 278 Z M 755 234 " clip-rule="nonzero"/></clipPath><clipPath id="ffc5830234"><path d="M 758.308594 145.574219 L 887.140625 148.449219 L 884.199219 280.277344 L 755.367188 277.402344 Z M 758.308594 145.574219 " clip-rule="nonzero"/></clipPath><clipPath id="4e77000721"><path d="M 758.308594 145.574219 L 887.140625 148.449219 L 884.199219 280.277344 L 755.367188 277.402344 Z M 758.308594 145.574219 " clip-rule="nonzero"/></clipPath><clipPath id="0d5f2ae47c"><path d="M 757 146 L 802 146 L 802 188 L 757 188 Z M 757 146 " clip-rule="nonzero"/></clipPath><clipPath id="04bd528129"><path d="M 758.308594 145.574219 L 887.140625 148.449219 L 884.199219 280.277344 L 755.367188 277.402344 Z M 758.308594 145.574219 " clip-rule="nonzero"/></clipPath><clipPath id="8f099f5da7"><path d="M 758.308594 145.574219 L 887.140625 148.449219 L 884.199219 280.277344 L 755.367188 277.402344 Z M 758.308594 145.574219 " clip-rule="nonzero"/></clipPath><clipPath id="80248c325e"><path d="M 852 148 L 887 148 L 887 189 L 852 189 Z M 852 148 " clip-rule="nonzero"/></clipPath><clipPath id="9e6b983d6c"><path d="M 758.308594 145.574219 L 887.140625 148.449219 L 884.199219 280.277344 L 755.367188 277.402344 Z M 758.308594 145.574219 " clip-rule="nonzero"/></clipPath><clipPath id="8adaa4366c"><path d="M 758.308594 145.574219 L 887.140625 148.449219 L 884.199219 280.277344 L 755.367188 277.402344 Z M 758.308594 145.574219 " clip-rule="nonzero"/></clipPath><clipPath id="08a4cd4818"><path d="M 845 239 L 885 239 L 885 280 L 845 280 Z M 845 239 " clip-rule="nonzero"/></clipPath><clipPath id="31e1238673"><path d="M 758.308594 145.574219 L 887.140625 148.449219 L 884.199219 280.277344 L 755.367188 277.402344 Z M 758.308594 145.574219 " clip-rule="nonzero"/></clipPath><clipPath id="4acb182a08"><path d="M 758.308594 145.574219 L 887.140625 148.449219 L 884.199219 280.277344 L 755.367188 277.402344 Z M 758.308594 145.574219 " clip-rule="nonzero"/></clipPath><clipPath id="2122d47981"><path d="M 767 238 L 769 238 L 769 240 L 767 240 Z M 767 238 " clip-rule="nonzero"/></clipPath><clipPath id="d454ea37d7"><path d="M 758.308594 145.574219 L 887.140625 148.449219 L 884.199219 280.277344 L 755.367188 277.402344 Z M 758.308594 145.574219 " clip-rule="nonzero"/></clipPath><clipPath id="358d139f75"><path d="M 758.308594 145.574219 L 887.140625 148.449219 L 884.199219 280.277344 L 755.367188 277.402344 Z M 758.308594 145.574219 " clip-rule="nonzero"/></clipPath><clipPath id="14828a7bff"><path d="M 767 243 L 768 243 L 768 244 L 767 244 Z M 767 243 " clip-rule="nonzero"/></clipPath><clipPath id="002230a2ce"><path d="M 758.308594 145.574219 L 887.140625 148.449219 L 884.199219 280.277344 L 755.367188 277.402344 Z M 758.308594 145.574219 " clip-rule="nonzero"/></clipPath><clipPath id="f8bf61ea36"><path d="M 758.308594 145.574219 L 887.140625 148.449219 L 884.199219 280.277344 L 755.367188 277.402344 Z M 758.308594 145.574219 " clip-rule="nonzero"/></clipPath><clipPath id="d47d35793e"><rect x="0" width="625" y="0" height="233"/></clipPath><clipPath id="6557807d73"><rect x="0" width="346" y="0" height="141"/></clipPath></defs><path fill="#ffffff" d="M 63.261719 284.351562 L 85.171875 247.175781 C 85.484375 246.648438 86.050781 246.324219 86.660156 246.324219 L 130.480469 246.324219 C 131.09375 246.324219 131.660156 246.648438 131.96875 247.175781 L 153.878906 284.351562 C 154.199219 284.894531 154.199219 285.566406 153.878906 286.109375 L 131.96875 323.285156 C 131.660156 323.8125 131.09375 324.136719 130.480469 324.136719 L 86.660156 324.136719 C 86.050781 324.136719 85.484375 323.8125 85.171875 323.285156 L 63.261719 286.109375 C 62.941406 285.566406 62.941406 284.894531 63.261719 284.351562 Z M 66.757812 285.230469 L 87.648438 320.675781 L 129.492188 320.675781 L 150.386719 285.230469 L 129.492188 249.78125 L 87.648438 249.78125 Z M 66.757812 285.230469 " fill-opacity="1" fill-rule="evenodd"/><path fill="#ffffff" d="M 62.769531 209.148438 L 84.679688 171.972656 C 84.988281 171.445312 85.554688 171.121094 86.167969 171.121094 L 129.988281 171.121094 C 130.601562 171.121094 131.167969 171.445312 131.476562 171.972656 L 153.386719 209.148438 C 153.707031 209.6875 153.707031 210.363281 153.386719 210.902344 L 131.476562 248.078125 C 131.167969 248.605469 130.601562 248.929688 129.988281 248.929688 L 86.167969 248.929688 C 85.554688 248.929688 84.988281 248.605469 84.679688 248.078125 L 62.769531 210.902344 C 62.449219 210.363281 62.449219 209.6875 62.769531 209.148438 Z M 66.265625 210.027344 L 87.15625 245.472656 L 129 245.472656 L 149.890625 210.027344 L 129 174.578125 L 87.15625 174.578125 Z M 66.265625 210.027344 " fill-opacity="1" fill-rule="evenodd"/><g clip-path="url(#ac8ce2c739)"><path fill="#ffffff" d="M 131.25 109.078125 L 153.160156 71.902344 C 153.472656 71.375 154.039062 71.050781 154.648438 71.050781 L 198.46875 71.050781 C 199.082031 71.050781 199.648438 71.375 199.960938 71.902344 L 221.871094 109.078125 C 222.1875 109.617188 222.1875 110.289062 221.871094 110.832031 L 199.960938 148.007812 C 199.648438 148.535156 199.082031 148.859375 198.46875 148.859375 L 154.648438 148.859375 C 154.039062 148.859375 153.472656 148.535156 153.160156 148.007812 L 131.25 110.832031 C 130.929688 110.289062 130.929688 109.617188 131.25 109.078125 Z M 134.746094 109.953125 L 155.636719 145.402344 L 197.480469 145.402344 L 218.375 109.953125 L 197.480469 74.507812 L 155.636719 74.507812 Z M 134.746094 109.953125 " fill-opacity="1" fill-rule="evenodd"/></g><g clip-path="url(#a6d66dcf04)"><path fill="#ffffff" d="M 84.6875 320.054688 C 85.003906 319.15625 85.992188 318.683594 86.890625 319.003906 C 87.792969 319.320312 88.261719 320.308594 87.945312 321.207031 L 78.621094 347.585938 C 78.300781 348.484375 77.3125 348.957031 76.414062 348.640625 C 75.515625 348.320312 75.042969 347.332031 75.359375 346.433594 Z M 84.6875 320.054688 " fill-opacity="1" fill-rule="evenodd"/></g><g clip-path="url(#d8d67492a7)"><path fill="#ffffff" d="M 150.488281 285.863281 C 149.535156 285.90625 148.726562 285.167969 148.683594 284.214844 C 148.640625 283.261719 149.378906 282.453125 150.332031 282.410156 L 177.554688 281.203125 C 178.507812 281.160156 179.316406 281.898438 179.359375 282.851562 C 179.402344 283.804688 178.660156 284.613281 177.707031 284.65625 Z M 150.488281 285.863281 " fill-opacity="1" fill-rule="evenodd"/></g><g clip-path="url(#ab09a15e74)"><path fill="#ffffff" d="M 151.855469 211.753906 C 150.902344 211.726562 150.148438 210.933594 150.171875 209.976562 C 150.199219 209.023438 150.996094 208.269531 151.949219 208.296875 L 171.03125 208.816406 C 171.984375 208.839844 172.738281 209.636719 172.710938 210.589844 C 172.683594 211.542969 171.890625 212.296875 170.9375 212.273438 Z M 151.855469 211.753906 " fill-opacity="1" fill-rule="evenodd"/></g><g clip-path="url(#1f83ac75d9)"><path fill="#ffffff" d="M 64.15625 208.296875 C 65.109375 208.269531 65.910156 209.019531 65.9375 209.972656 C 65.964844 210.925781 65.214844 211.726562 64.261719 211.753906 L 46.148438 212.292969 C 45.195312 212.320312 44.394531 211.570312 44.367188 210.617188 C 44.339844 209.664062 45.089844 208.867188 46.042969 208.835938 Z M 64.15625 208.296875 " fill-opacity="1" fill-rule="evenodd"/></g><g clip-path="url(#2b5e1ad69e)"><path fill="#ffffff" d="M 64.902344 283.300781 C 65.855469 283.292969 66.636719 284.0625 66.640625 285.015625 C 66.648438 285.972656 65.878906 286.75 64.925781 286.757812 L 45.890625 286.898438 C 44.9375 286.902344 44.15625 286.136719 44.148438 285.179688 C 44.144531 284.226562 44.910156 283.445312 45.867188 283.441406 Z M 64.902344 283.300781 " fill-opacity="1" fill-rule="evenodd"/></g><path fill="#ffffff" d="M 87.402344 171.726562 C 87.964844 172.5 87.792969 173.582031 87.019531 174.140625 C 86.246094 174.703125 85.164062 174.527344 84.605469 173.757812 L 71.472656 155.65625 C 70.914062 154.882812 71.085938 153.800781 71.859375 153.238281 C 72.628906 152.679688 73.710938 152.851562 74.273438 153.625 Z M 87.402344 171.726562 " fill-opacity="1" fill-rule="evenodd"/><g clip-path="url(#6cf5497a60)"><path fill="#ffffff" d="M 130.75 173.59375 C 130.082031 174.269531 128.984375 174.277344 128.304688 173.609375 C 127.628906 172.941406 127.621094 171.84375 128.289062 171.164062 L 152.71875 146.382812 C 153.390625 145.703125 154.484375 145.695312 155.164062 146.367188 C 155.84375 147.035156 155.851562 148.132812 155.183594 148.8125 Z M 130.75 173.59375 " fill-opacity="1" fill-rule="evenodd"/></g><g clip-path="url(#df5fbbf43d)"><path fill="#ffffff" d="M 135.171875 156.605469 L 128.320312 156.605469 L 128.320312 129.199219 L 135.171875 129.199219 C 157.875 129.199219 176.28125 147.605469 176.28125 170.308594 L 176.28125 218.269531 C 176.28125 222.582031 178.3125 226.644531 181.761719 229.230469 L 198.207031 241.5625 C 201.496094 244.03125 203.503906 247.847656 203.675781 251.957031 C 203.847656 256.066406 202.160156 260.039062 199.085938 262.769531 L 180.882812 278.945312 C 177.957031 281.546875 176.28125 285.277344 176.28125 289.191406 L 176.28125 334.746094 C 176.28125 357.449219 157.875 375.851562 135.171875 375.851562 L 128.320312 375.851562 L 128.320312 348.445312 L 135.171875 348.445312 C 142.742188 348.445312 148.875 342.3125 148.875 334.746094 L 148.875 289.191406 C 148.875 277.445312 153.898438 266.265625 162.675781 258.460938 L 168.34375 253.425781 L 165.320312 251.15625 C 154.96875 243.390625 148.875 231.207031 148.875 218.269531 L 148.875 170.308594 C 148.875 162.742188 142.742188 156.605469 135.171875 156.605469 Z M 135.171875 156.605469 " fill-opacity="1" fill-rule="evenodd"/></g><g clip-path="url(#b7df44bec2)"><path fill="#ffffff" d="M 80.359375 156.605469 L 87.210938 156.605469 L 87.210938 129.199219 L 80.359375 129.199219 C 57.65625 129.199219 39.25 147.605469 39.25 170.308594 L 39.25 218.269531 C 39.25 222.582031 37.222656 226.644531 33.769531 229.230469 L 17.328125 241.5625 C 14.035156 244.03125 12.027344 247.847656 11.859375 251.957031 C 11.6875 256.066406 13.371094 260.039062 16.445312 262.769531 L 34.652344 278.945312 C 37.578125 281.546875 39.25 285.277344 39.25 289.191406 L 39.25 334.746094 C 39.25 357.449219 57.65625 375.851562 80.359375 375.851562 L 87.210938 375.851562 L 87.210938 348.445312 L 80.359375 348.445312 C 72.792969 348.445312 66.65625 342.3125 66.65625 334.746094 L 66.65625 289.191406 C 66.65625 277.445312 61.632812 266.265625 52.855469 258.460938 L 47.1875 253.425781 L 50.214844 251.15625 C 60.566406 243.390625 66.65625 231.207031 66.65625 218.269531 L 66.65625 170.308594 C 66.65625 162.742188 72.792969 156.605469 80.359375 156.605469 Z M 80.359375 156.605469 " fill-opacity="1" fill-rule="evenodd"/></g><g clip-path="url(#d897d92f06)"><g clip-path="url(#ffc5830234)"><g clip-path="url(#4e77000721)"><path fill="#ffffff" d="M 760.671875 236.425781 C 761.167969 236.554688 761.617188 236.671875 762.0625 236.789062 C 762.132812 236.738281 762.246094 236.695312 762.273438 236.625 C 762.433594 236.21875 763 236.503906 763.164062 236.066406 C 763.277344 235.769531 763.496094 235.511719 763.675781 235.242188 C 764.140625 234.550781 764.695312 234.339844 765.476562 234.613281 C 765.824219 234.734375 766.140625 234.949219 766.5 235.136719 C 767.050781 236.550781 766.699219 237.988281 766.527344 239.5 C 767.058594 239.972656 767.175781 240.648438 767.113281 241.359375 C 766.960938 243.128906 766.800781 244.894531 766.617188 246.664062 C 766.527344 247.492188 766.683594 248.339844 766.367188 249.160156 C 766.230469 249.511719 766.730469 249.835938 766.488281 250.296875 C 766.304688 250.652344 766.324219 251.113281 766.265625 251.527344 C 766.207031 251.945312 766.167969 252.363281 766.109375 252.78125 C 766.054688 253.152344 765.972656 253.515625 765.925781 253.882812 C 765.875 254.300781 765.847656 254.726562 765.8125 255.148438 C 765.78125 255.570312 765.757812 255.992188 765.71875 256.414062 C 765.609375 257.632812 765.492188 258.851562 765.375 260.066406 C 765.144531 262.414062 765.257812 264.746094 765.664062 267.066406 C 765.695312 267.242188 765.789062 267.410156 765.867188 267.609375 C 767.675781 267.484375 769.449219 267.34375 771.222656 267.246094 C 772.8125 267.15625 774.386719 266.847656 775.996094 266.988281 C 776.738281 267.054688 777.496094 266.894531 778.246094 266.875 C 779.230469 266.855469 780.214844 266.90625 781.199219 266.867188 C 783.398438 266.769531 785.597656 266.589844 787.796875 266.523438 C 789.628906 266.46875 791.46875 266.511719 793.300781 266.554688 C 793.808594 266.570312 794.320312 266.710938 794.808594 266.867188 C 795.253906 267.003906 795.480469 267.570312 795.160156 267.890625 C 794.664062 268.386719 794.738281 269.082031 794.367188 269.621094 C 794.03125 270.105469 793.679688 270.613281 793.597656 271.25 C 793.546875 271.65625 793.195312 271.882812 792.796875 271.949219 C 792.242188 272.035156 791.679688 272.09375 791.121094 272.15625 C 790.425781 272.234375 789.648438 272.910156 789.695312 273.625 C 789.761719 274.589844 789.140625 274.878906 788.472656 275.097656 C 787.671875 275.359375 786.839844 275.570312 786 275.671875 C 782.964844 276.027344 779.921875 276.332031 776.878906 276.648438 C 775.101562 276.832031 773.320312 276.992188 771.542969 277.175781 C 768.90625 277.445312 766.273438 277.328125 763.65625 277.023438 C 762.703125 276.914062 761.757812 276.53125 761.132812 275.65625 C 760.566406 274.859375 759.960938 274.089844 759.359375 273.320312 C 759.292969 273.234375 759.160156 273.179688 759.046875 273.160156 C 758.4375 273.054688 758.230469 272.578125 758.105469 272.082031 C 757.957031 271.492188 757.789062 270.882812 757.789062 270.28125 C 757.789062 269.328125 757.34375 268.605469 756.621094 268.167969 C 755.890625 267.726562 755.699219 267.113281 755.699219 266.40625 C 755.695312 265.136719 755.71875 263.863281 755.855469 262.601562 C 756.152344 259.9375 756.523438 257.28125 756.863281 254.621094 C 757.355469 250.746094 757.851562 246.875 758.347656 243.003906 C 758.613281 240.90625 758.871094 238.808594 759.15625 236.714844 C 759.203125 236.347656 759.300781 235.96875 759.464844 235.644531 C 759.546875 235.492188 759.851562 235.363281 760.035156 235.382812 C 760.226562 235.402344 760.453125 235.585938 760.554688 235.761719 C 760.660156 235.945312 760.636719 236.207031 760.671875 236.425781 Z M 757.113281 263.515625 C 756.648438 264.398438 756.648438 264.398438 756.738281 265.484375 C 756.863281 264.824219 756.988281 264.171875 757.113281 263.515625 Z M 786.082031 274.367188 C 786.027344 274.261719 785.996094 274.128906 785.949219 274.125 C 785.789062 274.113281 785.621094 274.125 785.460938 274.164062 C 785.421875 274.171875 785.382812 274.371094 785.398438 274.378906 C 785.503906 274.4375 785.628906 274.503906 785.742188 274.5 C 785.855469 274.496094 785.96875 274.414062 786.082031 274.367188 Z M 788.542969 273.832031 C 788.316406 273.828125 788.121094 273.808594 787.933594 273.828125 C 787.878906 273.832031 787.792969 273.953125 787.796875 274.011719 C 787.804688 274.074219 787.894531 274.171875 787.960938 274.183594 C 788.191406 274.226562 788.40625 274.191406 788.542969 273.832031 Z M 782.222656 274.601562 C 782.066406 274.484375 781.964844 274.351562 781.863281 274.351562 C 781.769531 274.355469 781.675781 274.496094 781.582031 274.578125 C 781.675781 274.671875 781.761719 274.820312 781.871094 274.84375 C 781.953125 274.859375 782.066406 274.714844 782.222656 274.601562 Z M 779.683594 274.609375 C 779.617188 274.578125 779.546875 274.519531 779.492188 274.527344 C 779.441406 274.539062 779.410156 274.625 779.367188 274.679688 C 779.40625 274.699219 779.449219 274.742188 779.472656 274.734375 C 779.546875 274.703125 779.609375 274.65625 779.683594 274.609375 Z M 780.828125 274.722656 C 780.820312 274.6875 780.820312 274.648438 780.796875 274.621094 C 780.789062 274.609375 780.738281 274.632812 780.707031 274.640625 C 780.71875 274.675781 780.71875 274.714844 780.738281 274.742188 C 780.75 274.753906 780.796875 274.730469 780.828125 274.722656 Z M 780.828125 274.722656 " fill-opacity="1" fill-rule="nonzero"/></g></g></g><g clip-path="url(#0d5f2ae47c)"><g clip-path="url(#04bd528129)"><g clip-path="url(#8f099f5da7)"><path fill="#ffffff" d="M 770.773438 155.304688 C 770.542969 157.398438 770.3125 159.398438 770.109375 161.402344 C 770.085938 161.660156 770.152344 161.960938 770.28125 162.183594 C 770.429688 162.445312 770.332031 162.570312 770.207031 162.789062 C 769.902344 163.320312 769.832031 163.710938 770.09375 164.214844 C 770.269531 164.558594 770.246094 164.910156 770.148438 165.140625 C 769.609375 166.429688 769.695312 167.804688 769.589844 169.128906 C 769.359375 172.125 769.320312 175.132812 769.179688 178.132812 C 769.128906 179.214844 769.035156 180.292969 768.910156 181.367188 C 768.710938 183.046875 768.691406 183.042969 767.402344 184.171875 C 767.054688 184.046875 766.707031 183.921875 766.28125 183.773438 C 766.101562 184.144531 765.921875 184.511719 765.726562 184.914062 C 765.597656 184.914062 765.445312 184.957031 765.347656 184.902344 C 764.867188 184.644531 764.445312 184.738281 763.980469 185.113281 C 763.914062 185.410156 763.828125 185.773438 763.746094 186.136719 C 763.261719 186.671875 762.695312 187.050781 761.949219 187.117188 C 761.433594 187.164062 761.148438 187.042969 760.972656 186.53125 C 760.835938 186.140625 760.789062 185.722656 760.695312 185.289062 C 760.386719 184.996094 759.980469 184.945312 759.554688 184.882812 C 758.828125 184.777344 758.441406 184.46875 758.515625 183.796875 C 758.652344 182.550781 758.246094 181.394531 758.148438 180.191406 C 758.027344 178.761719 758.019531 177.324219 757.964844 175.886719 C 757.960938 175.75 757.953125 175.597656 757.992188 175.46875 C 758.289062 174.480469 758.316406 173.4375 758.5625 172.449219 C 758.722656 171.804688 758.820312 171.144531 758.769531 170.53125 C 758.679688 169.476562 758.898438 168.480469 759.023438 167.460938 C 759.113281 166.683594 759.164062 165.898438 759.25 165.121094 C 759.316406 164.519531 759.421875 163.917969 759.496094 163.316406 C 759.578125 162.667969 759.589844 162.007812 759.722656 161.375 C 759.972656 160.183594 760.25 159.003906 760.3125 157.78125 C 760.34375 157.230469 760.519531 156.683594 760.636719 156.136719 C 760.84375 155.171875 761.042969 154.210938 761.265625 153.25 C 761.488281 152.28125 761.886719 151.382812 762.457031 150.5625 C 762.410156 149.550781 762.738281 148.628906 763.148438 147.734375 C 763.273438 147.460938 763.515625 147.238281 763.710938 146.980469 C 764.460938 147.382812 764.085938 148.1875 764.5625 148.699219 C 764.683594 148.679688 764.949219 148.710938 765.011719 148.613281 C 765.492188 147.859375 766.296875 147.863281 767.011719 147.8125 C 769.777344 147.597656 772.542969 147.414062 775.3125 147.300781 C 777.378906 147.214844 779.449219 147.257812 781.515625 147.242188 C 782.832031 147.230469 784.152344 147.199219 785.46875 147.191406 C 786.359375 147.1875 787.253906 147.199219 788.144531 147.207031 C 791.15625 147.234375 794.164062 147.148438 797.125 147.917969 C 798.421875 148.253906 799.429688 148.84375 800.167969 149.984375 C 800.675781 150.765625 801.277344 151.484375 801.554688 152.394531 C 801.617188 152.597656 801.59375 152.832031 801.613281 153.089844 C 800.792969 153.351562 800.046875 153.046875 799.3125 153.128906 C 798.613281 153.207031 797.921875 153.328125 797.128906 153.445312 C 797.035156 153.601562 796.9375 153.894531 796.738281 154.050781 C 796.53125 154.214844 796.226562 154.277344 795.957031 154.320312 C 795.449219 154.40625 794.929688 154.511719 794.421875 154.496094 C 792.589844 154.4375 790.769531 154.613281 788.945312 154.730469 C 787.773438 154.808594 786.59375 154.769531 785.417969 154.761719 C 782.550781 154.75 779.683594 154.53125 776.820312 154.738281 C 774.855469 154.875 772.898438 155.101562 770.773438 155.304688 Z M 770.773438 155.304688 " fill-opacity="1" fill-rule="nonzero"/></g></g></g><g clip-path="url(#80248c325e)"><g clip-path="url(#9e6b983d6c)"><g clip-path="url(#8adaa4366c)"><path fill="#ffffff" d="M 877.425781 156.71875 C 876.386719 156.800781 875.503906 156.863281 874.617188 156.933594 C 873.351562 157.035156 872.085938 157.152344 870.820312 157.242188 C 869.414062 157.347656 868.007812 157.4375 866.601562 157.523438 C 866.273438 157.542969 865.925781 157.582031 865.617188 157.503906 C 864.453125 157.207031 863.292969 157.421875 862.128906 157.441406 C 860.296875 157.46875 858.480469 157.789062 856.640625 157.601562 C 856 157.535156 855.324219 157.664062 854.679688 157.78125 C 853.859375 157.933594 853.332031 157.597656 852.9375 156.917969 C 852.757812 156.609375 852.539062 156.316406 852.316406 155.984375 C 852.472656 155.769531 852.660156 155.558594 852.792969 155.320312 C 852.875 155.164062 852.976562 154.914062 852.910156 154.804688 C 852.566406 154.238281 852.96875 153.710938 852.96875 153.164062 C 852.96875 152.613281 853.273438 152.101562 853.695312 151.6875 C 853.808594 151.574219 853.773438 151.328125 853.847656 151.164062 C 854.140625 150.492188 854.585938 149.976562 855.324219 149.753906 C 855.820312 149.605469 856.292969 149.394531 856.773438 149.199219 C 858.328125 148.558594 859.984375 148.476562 861.625 148.421875 C 863.96875 148.347656 866.316406 148.390625 868.664062 148.371094 C 871.4375 148.351562 874.210938 148.320312 876.984375 148.292969 C 877.6875 148.289062 878.394531 148.296875 879.097656 148.285156 C 879.539062 148.28125 879.785156 148.535156 879.988281 148.921875 C 879.84375 149.261719 879.6875 149.621094 879.480469 150.09375 C 880.144531 150.203125 880.6875 150.292969 881.285156 150.390625 C 881.425781 150.121094 881.53125 149.871094 881.679688 149.648438 C 881.867188 149.363281 882.125 149.183594 882.484375 149.140625 C 883.035156 149.082031 883.578125 148.996094 884.105469 148.921875 C 884.738281 149.636719 885.09375 150.414062 885.085938 151.355469 C 885.085938 151.671875 885.179688 152.015625 885.324219 152.296875 C 886.320312 154.214844 886.441406 154.855469 886.285156 156.832031 C 886.136719 158.796875 886.125 160.777344 885.902344 162.730469 C 885.691406 164.597656 885.867188 166.492188 885.414062 168.335938 C 885.359375 168.558594 885.371094 168.804688 885.386719 169.039062 C 885.488281 170.578125 885.410156 172.113281 885.316406 173.648438 C 885.304688 173.789062 885.28125 173.933594 885.300781 174.070312 C 885.507812 175.535156 885.273438 176.972656 885.042969 178.410156 C 885 178.683594 885.03125 178.96875 885.035156 179.246094 C 885.039062 179.480469 885.152344 179.769531 885.050781 179.9375 C 884.507812 180.8125 884.710938 181.867188 884.316406 182.765625 C 883.964844 183.558594 883.914062 184.394531 883.882812 185.246094 C 883.859375 186.039062 883.699219 186.828125 883.617188 187.621094 C 883.582031 187.976562 883.382812 188.222656 883.144531 188.457031 C 882.6875 188.90625 882.273438 188.972656 881.808594 188.492188 C 881.464844 188.132812 881.121094 188.070312 880.683594 188.085938 C 880.507812 188.09375 880.222656 188.0625 880.171875 187.957031 C 879.792969 187.171875 878.984375 187.214844 878.351562 187.105469 C 877.691406 186.996094 877.226562 186.742188 876.796875 186.277344 C 876.351562 185.796875 876.15625 185.257812 876.207031 184.605469 C 876.308594 183.246094 876.382812 181.886719 876.480469 180.523438 C 876.550781 179.542969 876.640625 178.558594 876.714844 177.574219 C 876.855469 175.792969 877.046875 174.015625 877.113281 172.234375 C 877.214844 169.410156 877.222656 166.589844 877.285156 163.765625 C 877.332031 161.699219 877.402344 159.632812 877.457031 157.566406 C 877.464844 157.335938 877.441406 157.109375 877.425781 156.71875 Z M 877.425781 156.71875 " fill-opacity="1" fill-rule="nonzero"/></g></g></g><g clip-path="url(#08a4cd4818)"><g clip-path="url(#31e1238673)"><g clip-path="url(#4acb182a08)"><path fill="#ffffff" d="M 847.550781 276.105469 C 847.28125 275.871094 847.035156 275.660156 846.757812 275.425781 C 846.875 275.179688 846.972656 274.976562 847.070312 274.769531 C 847.050781 274.683594 847.054688 274.570312 847 274.511719 C 846.625 274.09375 846.175781 273.699219 846.382812 273.046875 C 846.632812 272.257812 847.03125 271.535156 847.855469 271.261719 C 849.011719 270.878906 850.152344 270.433594 851.394531 270.347656 C 852.46875 270.269531 853.542969 270.144531 854.605469 269.960938 C 858.1875 269.34375 861.789062 269.171875 865.417969 269.191406 C 868.285156 269.207031 871.148438 269.085938 874.019531 269.15625 C 875 269.179688 875.980469 269.085938 877.070312 269.039062 C 877.128906 268.828125 877.253906 268.574219 877.25 268.320312 C 877.242188 267.242188 877.195312 266.164062 877.160156 265.089844 C 877.148438 264.71875 877.042969 264.324219 877.136719 263.980469 C 877.359375 263.140625 877.171875 262.316406 877.097656 261.496094 C 877 260.414062 877.03125 259.34375 877.109375 258.261719 C 877.191406 257.09375 877.128906 255.917969 877.195312 254.753906 C 877.261719 253.636719 877.058594 252.511719 877.300781 251.398438 C 877.347656 251.175781 877.355469 250.917969 877.289062 250.703125 C 877.003906 249.773438 877.105469 248.851562 877.238281 247.914062 C 877.300781 247.457031 877.246094 246.980469 877.203125 246.519531 C 877.132812 245.722656 877.058594 244.949219 877.21875 244.136719 C 877.351562 243.46875 877.25 242.75 877.238281 242.054688 C 877.230469 241.4375 877.28125 240.867188 877.78125 240.390625 C 878 240.179688 878.046875 239.796875 878.210938 239.515625 C 878.507812 239.015625 879.019531 239.035156 879.308594 239.5625 C 879.441406 239.800781 879.492188 240.082031 879.578125 240.347656 C 879.71875 240.785156 879.761719 241.28125 880.226562 241.539062 C 880.328125 241.550781 880.425781 241.582031 880.511719 241.5625 C 880.867188 241.480469 881.207031 241.222656 881.59375 241.441406 C 882.0625 241.710938 882.378906 242.128906 882.511719 242.644531 C 882.941406 244.320312 883.402344 245.992188 883.460938 247.746094 C 883.5 248.867188 883.597656 249.988281 883.597656 251.117188 C 883.59375 252.519531 883.769531 253.921875 883.863281 255.324219 C 883.925781 256.308594 884 257.292969 884.019531 258.277344 C 884.058594 260.535156 884.058594 262.789062 884.085938 265.046875 C 884.109375 266.683594 884.078125 268.316406 883.910156 269.953125 C 883.839844 270.648438 883.902344 271.359375 883.886719 272.0625 C 883.871094 272.902344 883.886719 273.75 883.785156 274.582031 C 883.742188 274.914062 883.460938 275.246094 883.222656 275.515625 C 883.050781 275.71875 882.765625 275.824219 882.5 275.992188 C 882.273438 275.78125 882.042969 275.5625 881.847656 275.375 C 881.378906 275.414062 881.351562 275.832031 881.054688 276.089844 C 880.753906 276.125 880.386719 276.167969 880.027344 276.207031 C 879.957031 276.277344 879.863281 276.332031 879.835938 276.410156 C 879.757812 276.628906 879.726562 276.867188 879.640625 277.085938 C 879.402344 277.695312 878.574219 278.164062 877.9375 278.011719 C 877.609375 277.933594 877.355469 277.714844 877.320312 277.324219 C 877.273438 276.765625 877.226562 276.203125 877.148438 275.644531 C 877.128906 275.527344 876.992188 275.351562 876.894531 275.339844 C 876.734375 275.320312 876.527344 275.371094 876.402344 275.46875 C 876.152344 275.675781 875.957031 275.949219 875.714844 276.164062 C 875.03125 276.761719 874.265625 277.125 873.328125 277.246094 C 871.839844 277.441406 870.367188 277.777344 868.894531 278.074219 C 866.132812 278.640625 863.351562 278.96875 860.535156 279.070312 C 858.660156 279.136719 856.789062 279.304688 854.917969 279.417969 C 853.597656 279.496094 852.289062 279.441406 850.976562 279.246094 C 849.769531 279.066406 848.550781 278.945312 847.34375 278.757812 C 846.984375 278.699219 846.617188 278.554688 846.300781 278.367188 C 845.726562 278.027344 845.742188 277.292969 846.375 277.046875 C 846.898438 276.839844 847.230469 276.507812 847.550781 276.105469 Z M 847.550781 276.105469 " fill-opacity="1" fill-rule="nonzero"/></g></g></g><g clip-path="url(#2122d47981)"><g clip-path="url(#d454ea37d7)"><g clip-path="url(#358d139f75)"><path fill="#ffffff" d="M 768 239.023438 L 767.988281 238.890625 L 768.058594 238.910156 Z M 768 239.023438 " fill-opacity="1" fill-rule="nonzero"/></g></g></g><g clip-path="url(#14828a7bff)"><g clip-path="url(#002230a2ce)"><g clip-path="url(#f8bf61ea36)"><path fill="#ffffff" d="M 767.367188 243.164062 C 767.382812 243.195312 767.410156 243.234375 767.402344 243.261719 C 767.398438 243.292969 767.355469 243.3125 767.332031 243.335938 C 767.34375 243.277344 767.355469 243.222656 767.367188 243.164062 Z M 767.367188 243.164062 " fill-opacity="1" fill-rule="nonzero"/></g></g></g><g transform="matrix(1, 0, 0, 1, 239, 73)"><g clip-path="url(#d47d35793e)"><g fill="#ffffff" fill-opacity="1"><g transform="translate(0.272437, 175.836597)"><g><path d="M 90.203125 0 L 70.46875 0 L 70.46875 -54.5 C 70.46875 -56.6875 69.921875 -58.328125 68.828125 -59.421875 C 67.734375 -60.523438 66.296875 -61.078125 64.515625 -61.078125 C 62.429688 -61.078125 60.785156 -60.445312 59.578125 -59.1875 C 58.378906 -57.9375 57.78125 -56.0625 57.78125 -53.5625 L 57.78125 0 L 38.0625 0 L 38.0625 -54.5 C 38.0625 -56.6875 37.457031 -58.328125 36.25 -59.421875 C 35.050781 -60.523438 33.617188 -61.078125 31.953125 -61.078125 C 30.066406 -61.078125 28.5 -60.445312 27.25 -59.1875 C 26 -57.9375 25.375 -56.0625 25.375 -53.5625 L 25.375 0 L 5.640625 0 L 5.640625 -77.671875 L 25.375 -77.671875 L 25.375 -70.15625 L 28.1875 -70.15625 C 28.8125 -72.976562 30.242188 -75.300781 32.484375 -77.125 C 34.734375 -78.957031 37.6875 -79.875 41.34375 -79.875 C 44.789062 -79.875 47.710938 -78.957031 50.109375 -77.125 C 52.515625 -75.300781 54.132812 -72.976562 54.96875 -70.15625 L 57.78125 -70.15625 C 58.625 -72.976562 60.375 -75.300781 63.03125 -77.125 C 65.695312 -78.957031 69.015625 -79.875 72.984375 -79.875 C 78.203125 -79.875 82.375 -78.125 85.5 -74.625 C 88.632812 -71.125 90.203125 -66.296875 90.203125 -60.140625 Z M 90.203125 0 "/></g></g></g><g fill="#ffffff" fill-opacity="1"><g transform="translate(89.381582, 175.836597)"><g><path d="M 62.484375 -11.28125 C 60.398438 -6.375 57.476562 -2.898438 53.71875 -0.859375 C 49.957031 1.171875 45.570312 2.1875 40.5625 2.1875 C 35.863281 2.1875 31.453125 1.300781 27.328125 -0.46875 C 23.203125 -2.238281 19.570312 -4.847656 16.4375 -8.296875 C 13.3125 -11.742188 10.832031 -15.921875 9 -20.828125 C 7.175781 -25.734375 6.265625 -31.320312 6.265625 -37.59375 L 6.265625 -40.09375 C 6.265625 -46.25 7.148438 -51.78125 8.921875 -56.6875 C 10.703125 -61.59375 13.101562 -65.769531 16.125 -69.21875 C 19.15625 -72.664062 22.679688 -75.300781 26.703125 -77.125 C 30.722656 -78.957031 35.03125 -79.875 39.625 -79.875 C 45.15625 -79.875 49.617188 -78.929688 53.015625 -77.046875 C 56.410156 -75.171875 59.097656 -72.25 61.078125 -68.28125 L 63.890625 -68.28125 L 63.890625 -77.671875 L 83.625 -77.671875 L 83.625 -23.484375 C 83.625 -20.359375 85.035156 -18.796875 87.859375 -18.796875 L 90.828125 -18.796875 L 90.828125 0 L 77.359375 0 C 73.816406 0 70.921875 -1.039062 68.671875 -3.125 C 66.429688 -5.21875 65.3125 -7.9375 65.3125 -11.28125 Z M 44.953125 -16.59375 C 50.691406 -16.59375 55.28125 -18.5 58.71875 -22.3125 C 62.164062 -26.125 63.890625 -31.320312 63.890625 -37.90625 L 63.890625 -39.78125 C 63.890625 -46.351562 62.164062 -51.546875 58.71875 -55.359375 C 55.28125 -59.171875 50.691406 -61.078125 44.953125 -61.078125 C 39.203125 -61.078125 34.601562 -59.171875 31.15625 -55.359375 C 27.71875 -51.546875 26 -46.351562 26 -39.78125 L 26 -37.90625 C 26 -31.320312 27.71875 -26.125 31.15625 -22.3125 C 34.601562 -18.5 39.203125 -16.59375 44.953125 -16.59375 Z M 44.953125 -16.59375 "/></g></g></g><g fill="#ffffff" fill-opacity="1"><g transform="translate(178.490726, 175.836597)"><g><path d="M 10.015625 -77.671875 L 33.046875 -77.671875 L 33.046875 -109.625 L 52.78125 -109.625 L 52.78125 -77.671875 L 80.8125 -77.671875 L 80.8125 -58.890625 L 52.78125 -58.890625 L 52.78125 -23.484375 C 52.78125 -20.359375 54.1875 -18.796875 57 -18.796875 L 77.984375 -18.796875 L 77.984375 0 L 45.109375 0 C 41.554688 0 38.65625 -1.144531 36.40625 -3.4375 C 34.164062 -5.738281 33.046875 -8.664062 33.046875 -12.21875 L 33.046875 -58.890625 L 10.015625 -58.890625 Z M 10.015625 -77.671875 "/></g></g></g><g fill="#ffffff" fill-opacity="1"><g transform="translate(267.599871, 175.836597)"><g><path d="M 11.75 -18.796875 L 39 -18.796875 L 39 -90.828125 L 12.6875 -90.828125 L 12.6875 -109.625 L 58.734375 -109.625 L 58.734375 -18.796875 L 84.09375 -18.796875 L 84.09375 0 L 11.75 0 Z M 11.75 -18.796875 "/></g></g></g><g fill="#ffffff" fill-opacity="1"><g transform="translate(356.709016, 175.836597)"><g><path d="M 62.484375 -11.28125 C 60.398438 -6.375 57.476562 -2.898438 53.71875 -0.859375 C 49.957031 1.171875 45.570312 2.1875 40.5625 2.1875 C 35.863281 2.1875 31.453125 1.300781 27.328125 -0.46875 C 23.203125 -2.238281 19.570312 -4.847656 16.4375 -8.296875 C 13.3125 -11.742188 10.832031 -15.921875 9 -20.828125 C 7.175781 -25.734375 6.265625 -31.320312 6.265625 -37.59375 L 6.265625 -40.09375 C 6.265625 -46.25 7.148438 -51.78125 8.921875 -56.6875 C 10.703125 -61.59375 13.101562 -65.769531 16.125 -69.21875 C 19.15625 -72.664062 22.679688 -75.300781 26.703125 -77.125 C 30.722656 -78.957031 35.03125 -79.875 39.625 -79.875 C 45.15625 -79.875 49.617188 -78.929688 53.015625 -77.046875 C 56.410156 -75.171875 59.097656 -72.25 61.078125 -68.28125 L 63.890625 -68.28125 L 63.890625 -77.671875 L 83.625 -77.671875 L 83.625 -23.484375 C 83.625 -20.359375 85.035156 -18.796875 87.859375 -18.796875 L 90.828125 -18.796875 L 90.828125 0 L 77.359375 0 C 73.816406 0 70.921875 -1.039062 68.671875 -3.125 C 66.429688 -5.21875 65.3125 -7.9375 65.3125 -11.28125 Z M 44.953125 -16.59375 C 50.691406 -16.59375 55.28125 -18.5 58.71875 -22.3125 C 62.164062 -26.125 63.890625 -31.320312 63.890625 -37.90625 L 63.890625 -39.78125 C 63.890625 -46.351562 62.164062 -51.546875 58.71875 -55.359375 C 55.28125 -59.171875 50.691406 -61.078125 44.953125 -61.078125 C 39.203125 -61.078125 34.601562 -59.171875 31.15625 -55.359375 C 27.71875 -51.546875 26 -46.351562 26 -39.78125 L 26 -37.90625 C 26 -31.320312 27.71875 -26.125 31.15625 -22.3125 C 34.601562 -18.5 39.203125 -16.59375 44.953125 -16.59375 Z M 44.953125 -16.59375 "/></g></g></g><g fill="#ffffff" fill-opacity="1"><g transform="translate(445.818161, 175.836597)"><g><path d="M 28.65625 0 L 8.921875 0 L 8.921875 -109.625 L 28.65625 -109.625 L 28.65625 -66.40625 L 31.484375 -66.40625 C 33.566406 -70.6875 36.59375 -74 40.5625 -76.34375 C 44.53125 -78.695312 49.59375 -79.875 55.75 -79.875 C 60.34375 -79.875 64.703125 -78.984375 68.828125 -77.203125 C 72.953125 -75.429688 76.550781 -72.847656 79.625 -69.453125 C 82.707031 -66.054688 85.160156 -61.90625 86.984375 -57 C 88.816406 -52.09375 89.734375 -46.507812 89.734375 -40.25 L 89.734375 -37.421875 C 89.734375 -31.054688 88.84375 -25.421875 87.0625 -20.515625 C 85.289062 -15.609375 82.890625 -11.457031 79.859375 -8.0625 C 76.835938 -4.664062 73.265625 -2.109375 69.140625 -0.390625 C 65.015625 1.328125 60.550781 2.1875 55.75 2.1875 C 52.195312 2.1875 49.113281 1.820312 46.5 1.09375 C 43.894531 0.363281 41.625 -0.625 39.6875 -1.875 C 37.757812 -3.132812 36.144531 -4.570312 34.84375 -6.1875 C 33.539062 -7.800781 32.421875 -9.5 31.484375 -11.28125 L 28.65625 -11.28125 Z M 49.328125 -16.59375 C 55.492188 -16.59375 60.476562 -18.5 64.28125 -22.3125 C 68.09375 -26.125 70 -31.320312 70 -37.90625 L 70 -39.78125 C 70 -46.351562 68.09375 -51.546875 64.28125 -55.359375 C 60.476562 -59.171875 55.492188 -61.078125 49.328125 -61.078125 C 43.171875 -61.078125 38.1875 -59.117188 34.375 -55.203125 C 30.5625 -51.285156 28.65625 -46.144531 28.65625 -39.78125 L 28.65625 -37.90625 C 28.65625 -31.53125 30.5625 -26.382812 34.375 -22.46875 C 38.1875 -18.550781 43.171875 -16.59375 49.328125 -16.59375 Z M 49.328125 -16.59375 "/></g></g></g><g fill="#ffffff" fill-opacity="1"><g transform="translate(534.936682, 175.836597)"><g><path d="M 29.75 -57.625 C 29.75 -53.875 31.34375 -51.003906 34.53125 -49.015625 C 37.71875 -47.035156 43.539062 -45.734375 52 -45.109375 C 61.082031 -44.367188 68 -42.195312 72.75 -38.59375 C 77.5 -35 79.875 -29.753906 79.875 -22.859375 L 79.875 -21.921875 C 79.875 -18.160156 79.113281 -14.789062 77.59375 -11.8125 C 76.082031 -8.84375 73.992188 -6.3125 71.328125 -4.21875 C 68.671875 -2.132812 65.4375 -0.546875 61.625 0.546875 C 57.8125 1.640625 53.660156 2.1875 49.171875 2.1875 C 43.117188 2.1875 37.925781 1.378906 33.59375 -0.234375 C 29.257812 -1.847656 25.65625 -3.988281 22.78125 -6.65625 C 19.914062 -9.320312 17.75 -12.347656 16.28125 -15.734375 C 14.820312 -19.128906 13.988281 -22.550781 13.78125 -26 L 25.375 -28.8125 C 25.894531 -22.863281 28.191406 -18.085938 32.265625 -14.484375 C 36.335938 -10.878906 41.765625 -9.078125 48.546875 -9.078125 C 54.285156 -9.078125 58.90625 -10.195312 62.40625 -12.4375 C 65.90625 -14.6875 67.65625 -17.847656 67.65625 -21.921875 C 67.65625 -26.304688 65.929688 -29.4375 62.484375 -31.3125 C 59.035156 -33.195312 53.453125 -34.398438 45.734375 -34.921875 C 36.753906 -35.546875 29.863281 -37.632812 25.0625 -41.1875 C 20.257812 -44.738281 17.859375 -49.90625 17.859375 -56.6875 L 17.859375 -57.625 C 17.859375 -61.28125 18.640625 -64.488281 20.203125 -67.25 C 21.765625 -70.019531 23.875 -72.34375 26.53125 -74.21875 C 29.195312 -76.101562 32.203125 -77.515625 35.546875 -78.453125 C 38.890625 -79.398438 42.390625 -79.875 46.046875 -79.875 C 51.160156 -79.875 55.648438 -79.164062 59.515625 -77.75 C 63.378906 -76.34375 66.613281 -74.515625 69.21875 -72.265625 C 71.832031 -70.023438 73.84375 -67.441406 75.25 -64.515625 C 76.65625 -61.597656 77.566406 -58.675781 77.984375 -55.75 L 66.40625 -52.9375 C 65.882812 -57.945312 63.875 -61.859375 60.375 -64.671875 C 56.875 -67.492188 52.304688 -68.90625 46.671875 -68.90625 C 44.472656 -68.90625 42.351562 -68.671875 40.3125 -68.203125 C 38.28125 -67.734375 36.484375 -67.023438 34.921875 -66.078125 C 33.359375 -65.140625 32.101562 -63.96875 31.15625 -62.5625 C 30.21875 -61.15625 29.75 -59.507812 29.75 -57.625 Z M 29.75 -57.625 "/></g></g></g></g></g><g transform="matrix(1, 0, 0, 1, 239, 249)"><g clip-path="url(#6557807d73)"><g fill="#ffffff" fill-opacity="1"><g transform="translate(0.272437, 105.909097)"><g><path d="M 15.875 -27.0625 L 15.875 0 L 7.984375 0 L 7.984375 -65.78125 L 31.484375 -65.78125 C 34.859375 -65.78125 37.800781 -65.289062 40.3125 -64.3125 C 42.820312 -63.34375 44.90625 -62.046875 46.5625 -60.421875 C 48.21875 -58.796875 49.46875 -56.898438 50.3125 -54.734375 C 51.164062 -52.578125 51.59375 -50.304688 51.59375 -47.921875 L 51.59375 -45.109375 C 51.59375 -42.722656 51.164062 -40.429688 50.3125 -38.234375 C 49.46875 -36.046875 48.203125 -34.117188 46.515625 -32.453125 C 44.828125 -30.796875 42.726562 -29.484375 40.21875 -28.515625 C 37.707031 -27.546875 34.796875 -27.0625 31.484375 -27.0625 Z M 15.875 -34.390625 L 30.546875 -34.390625 C 39.316406 -34.390625 43.703125 -38.148438 43.703125 -45.671875 L 43.703125 -47.359375 C 43.703125 -50.679688 42.617188 -53.359375 40.453125 -55.390625 C 38.296875 -57.429688 34.992188 -58.453125 30.546875 -58.453125 L 15.875 -58.453125 Z M 15.875 -34.390625 "/></g></g></g><g fill="#ffffff" fill-opacity="1"><g transform="translate(49.509479, 105.909097)"><g><path d="M 5.546875 -46.609375 L 22.453125 -46.609375 L 22.453125 -40.40625 L 23.59375 -40.40625 C 24.78125 -42.976562 26.46875 -44.875 28.65625 -46.09375 C 30.851562 -47.3125 33.359375 -47.921875 36.171875 -47.921875 C 40.867188 -47.921875 44.660156 -46.382812 47.546875 -43.3125 C 50.429688 -40.25 51.96875 -35.769531 52.15625 -29.875 L 44.453125 -28.75 C 44.453125 -33.070312 43.414062 -36.1875 41.34375 -38.09375 C 39.28125 -40.007812 36.742188 -40.96875 33.734375 -40.96875 C 31.796875 -40.96875 30.117188 -40.59375 28.703125 -39.84375 C 27.296875 -39.09375 26.125 -38.054688 25.1875 -36.734375 C 24.25 -35.421875 23.554688 -33.882812 23.109375 -32.125 C 22.671875 -30.375 22.453125 -28.5 22.453125 -26.5 L 22.453125 -6.765625 L 34.296875 -6.765625 L 34.296875 0 L 4.421875 0 L 4.421875 -6.765625 L 15.125 -6.765625 L 15.125 -39.84375 L 5.546875 -39.84375 Z M 5.546875 -46.609375 "/></g></g></g><g fill="#ffffff" fill-opacity="1"><g transform="translate(98.746521, 105.909097)"><g><path d="M 52.15625 -22.734375 C 52.15625 -18.859375 51.507812 -15.429688 50.21875 -12.453125 C 48.9375 -9.472656 47.226562 -6.960938 45.09375 -4.921875 C 42.96875 -2.890625 40.476562 -1.34375 37.625 -0.28125 C 34.78125 0.78125 31.820312 1.3125 28.75 1.3125 C 25.625 1.3125 22.648438 0.78125 19.828125 -0.28125 C 17.003906 -1.34375 14.523438 -2.890625 12.390625 -4.921875 C 10.265625 -6.960938 8.5625 -9.472656 7.28125 -12.453125 C 6 -15.429688 5.359375 -18.859375 5.359375 -22.734375 L 5.359375 -23.875 C 5.359375 -27.6875 6 -31.082031 7.28125 -34.0625 C 8.5625 -37.039062 10.28125 -39.5625 12.4375 -41.625 C 14.601562 -43.695312 17.097656 -45.265625 19.921875 -46.328125 C 22.742188 -47.390625 25.6875 -47.921875 28.75 -47.921875 C 31.820312 -47.921875 34.765625 -47.390625 37.578125 -46.328125 C 40.398438 -45.265625 42.890625 -43.695312 45.046875 -41.625 C 47.210938 -39.5625 48.9375 -37.039062 50.21875 -34.0625 C 51.507812 -31.082031 52.15625 -27.6875 52.15625 -23.875 Z M 28.75 -5.640625 C 31.007812 -5.640625 33.09375 -6.03125 35 -6.8125 C 36.914062 -7.59375 38.59375 -8.734375 40.03125 -10.234375 C 41.46875 -11.742188 42.59375 -13.546875 43.40625 -15.640625 C 44.226562 -17.742188 44.640625 -20.109375 44.640625 -22.734375 L 44.640625 -23.875 C 44.640625 -26.375 44.226562 -28.671875 43.40625 -30.765625 C 42.59375 -32.867188 41.46875 -34.671875 40.03125 -36.171875 C 38.59375 -37.679688 36.898438 -38.859375 34.953125 -39.703125 C 33.015625 -40.546875 30.945312 -40.96875 28.75 -40.96875 C 26.5625 -40.96875 24.492188 -40.546875 22.546875 -39.703125 C 20.609375 -38.859375 18.914062 -37.679688 17.46875 -36.171875 C 16.03125 -34.671875 14.90625 -32.867188 14.09375 -30.765625 C 13.28125 -28.671875 12.875 -26.375 12.875 -23.875 L 12.875 -22.734375 C 12.875 -20.109375 13.28125 -17.742188 14.09375 -15.640625 C 14.90625 -13.546875 16.03125 -11.742188 17.46875 -10.234375 C 18.914062 -8.734375 20.59375 -7.59375 22.5 -6.8125 C 24.414062 -6.03125 26.5 -5.640625 28.75 -5.640625 Z M 28.75 -5.640625 "/></g></g></g><g fill="#ffffff" fill-opacity="1"><g transform="translate(147.983563, 105.909097)"><g><path d="M 28.84375 -60.515625 C 28.84375 -62.328125 29.484375 -63.875 30.765625 -65.15625 C 32.054688 -66.445312 33.609375 -67.09375 35.421875 -67.09375 C 37.242188 -67.09375 38.796875 -66.445312 40.078125 -65.15625 C 41.359375 -63.875 42 -62.328125 42 -60.515625 C 42 -58.703125 41.359375 -57.148438 40.078125 -55.859375 C 38.796875 -54.578125 37.242188 -53.9375 35.421875 -53.9375 C 33.609375 -53.9375 32.054688 -54.578125 30.765625 -55.859375 C 29.484375 -57.148438 28.84375 -58.703125 28.84375 -60.515625 Z M 13.25 -46.609375 L 39.1875 -46.609375 L 39.1875 11.46875 C 39.1875 13.59375 38.507812 15.34375 37.15625 16.71875 C 35.8125 18.101562 34.078125 18.796875 31.953125 18.796875 L 11 18.796875 L 11 12.03125 L 29.3125 12.03125 C 31.007812 12.03125 31.859375 11.085938 31.859375 9.203125 L 31.859375 -39.84375 L 13.25 -39.84375 Z M 13.25 -46.609375 "/></g></g></g><g fill="#ffffff" fill-opacity="1"><g transform="translate(197.220605, 105.909097)"><g><path d="M 13.53125 -21.046875 C 13.71875 -16.410156 15.15625 -12.679688 17.84375 -9.859375 C 20.539062 -7.046875 24.300781 -5.640625 29.125 -5.640625 C 31.320312 -5.640625 33.234375 -5.890625 34.859375 -6.390625 C 36.492188 -6.890625 37.890625 -7.578125 39.046875 -8.453125 C 40.203125 -9.328125 41.140625 -10.34375 41.859375 -11.5 C 42.578125 -12.664062 43.15625 -13.90625 43.59375 -15.21875 L 50.5625 -13.34375 C 49.238281 -9.019531 46.804688 -5.492188 43.265625 -2.765625 C 39.734375 -0.046875 34.957031 1.3125 28.9375 1.3125 C 25.625 1.3125 22.570312 0.734375 19.78125 -0.421875 C 16.988281 -1.578125 14.585938 -3.21875 12.578125 -5.34375 C 10.578125 -7.476562 9.015625 -10.019531 7.890625 -12.96875 C 6.765625 -15.914062 6.203125 -19.171875 6.203125 -22.734375 L 6.203125 -25 C 6.203125 -28.25 6.78125 -31.285156 7.9375 -34.109375 C 9.09375 -36.929688 10.703125 -39.359375 12.765625 -41.390625 C 14.835938 -43.429688 17.269531 -45.03125 20.0625 -46.1875 C 22.851562 -47.34375 25.875 -47.921875 29.125 -47.921875 C 32.945312 -47.921875 36.25 -47.21875 39.03125 -45.8125 C 41.820312 -44.40625 44.109375 -42.664062 45.890625 -40.59375 C 47.679688 -38.53125 49 -36.273438 49.84375 -33.828125 C 50.695312 -31.378906 51.125 -29.125 51.125 -27.0625 L 51.125 -21.046875 Z M 29.125 -40.96875 C 27.0625 -40.96875 25.132812 -40.640625 23.34375 -39.984375 C 21.5625 -39.328125 19.992188 -38.398438 18.640625 -37.203125 C 17.296875 -36.015625 16.203125 -34.625 15.359375 -33.03125 C 14.515625 -31.4375 13.96875 -29.695312 13.71875 -27.8125 L 43.796875 -27.8125 C 43.660156 -29.820312 43.171875 -31.640625 42.328125 -33.265625 C 41.484375 -34.890625 40.390625 -36.265625 39.046875 -37.390625 C 37.703125 -38.523438 36.164062 -39.40625 34.4375 -40.03125 C 32.71875 -40.65625 30.945312 -40.96875 29.125 -40.96875 Z M 29.125 -40.96875 "/></g></g></g><g fill="#ffffff" fill-opacity="1"><g transform="translate(246.457646, 105.909097)"><g><path d="M 51.78125 -16.53125 C 51.28125 -13.96875 50.414062 -11.585938 49.1875 -9.390625 C 47.96875 -7.203125 46.414062 -5.304688 44.53125 -3.703125 C 42.65625 -2.109375 40.460938 -0.875 37.953125 0 C 35.453125 0.875 32.664062 1.3125 29.59375 1.3125 C 26.34375 1.3125 23.257812 0.78125 20.34375 -0.28125 C 17.425781 -1.34375 14.867188 -2.890625 12.671875 -4.921875 C 10.484375 -6.960938 8.75 -9.457031 7.46875 -12.40625 C 6.1875 -15.351562 5.546875 -18.734375 5.546875 -22.546875 L 5.546875 -23.6875 C 5.546875 -27.4375 6.1875 -30.816406 7.46875 -33.828125 C 8.75 -36.835938 10.484375 -39.375 12.671875 -41.4375 C 14.867188 -43.507812 17.425781 -45.109375 20.34375 -46.234375 C 23.257812 -47.359375 26.34375 -47.921875 29.59375 -47.921875 C 32.539062 -47.921875 35.265625 -47.484375 37.765625 -46.609375 C 40.273438 -45.734375 42.484375 -44.492188 44.390625 -42.890625 C 46.304688 -41.296875 47.875 -39.398438 49.09375 -37.203125 C 50.320312 -35.015625 51.15625 -32.632812 51.59375 -30.0625 L 44.265625 -28.375 C 44.078125 -30.007812 43.617188 -31.59375 42.890625 -33.125 C 42.171875 -34.65625 41.203125 -36 39.984375 -37.15625 C 38.765625 -38.320312 37.273438 -39.25 35.515625 -39.9375 C 33.765625 -40.625 31.726562 -40.96875 29.40625 -40.96875 C 27.15625 -40.96875 25.039062 -40.546875 23.0625 -39.703125 C 21.09375 -38.859375 19.351562 -37.664062 17.84375 -36.125 C 16.34375 -34.59375 15.171875 -32.757812 14.328125 -30.625 C 13.484375 -28.5 13.0625 -26.1875 13.0625 -23.6875 L 13.0625 -22.546875 C 13.0625 -19.921875 13.484375 -17.554688 14.328125 -15.453125 C 15.171875 -13.359375 16.34375 -11.585938 17.84375 -10.140625 C 19.351562 -8.703125 21.109375 -7.59375 23.109375 -6.8125 C 25.117188 -6.03125 27.28125 -5.640625 29.59375 -5.640625 C 31.914062 -5.640625 33.9375 -6 35.65625 -6.71875 C 37.382812 -7.4375 38.859375 -8.375 40.078125 -9.53125 C 41.296875 -10.695312 42.265625 -12.03125 42.984375 -13.53125 C 43.710938 -15.03125 44.203125 -16.597656 44.453125 -18.234375 Z M 51.78125 -16.53125 "/></g></g></g><g fill="#ffffff" fill-opacity="1"><g transform="translate(295.694688, 105.909097)"><g><path d="M 6.578125 -46.609375 L 21.234375 -46.609375 L 21.234375 -65.78125 L 28.5625 -65.78125 L 28.5625 -46.609375 L 46.609375 -46.609375 L 46.609375 -39.84375 L 28.5625 -39.84375 L 28.5625 -9.578125 C 28.5625 -7.703125 29.410156 -6.765625 31.109375 -6.765625 L 44.359375 -6.765625 L 44.359375 0 L 28.46875 0 C 26.34375 0 24.601562 -0.6875 23.25 -2.0625 C 21.90625 -3.445312 21.234375 -5.203125 21.234375 -7.328125 L 21.234375 -39.84375 L 6.578125 -39.84375 Z M 6.578125 -46.609375 "/></g></g></g></g></g></svg>